<?xml version="1.0" encoding="UTF-8" standalone="no"?>
<!-- Created with Inkscape (http://www.inkscape.org/) -->

<svg
   xmlns:dc="http://purl.org/dc/elements/1.1/"
   xmlns:cc="http://creativecommons.org/ns#"
   xmlns:rdf="http://www.w3.org/1999/02/22-rdf-syntax-ns#"
   xmlns:svg="http://www.w3.org/2000/svg"
   xmlns="http://www.w3.org/2000/svg"
   xmlns:sodipodi="http://sodipodi.sourceforge.net/DTD/sodipodi-0.dtd"
   xmlns:inkscape="http://www.inkscape.org/namespaces/inkscape"
   version="1.1"
   id="svg2"
   xml:space="preserve"
   width="491"
   height="122"
   viewBox="0 0 491 122"
   sodipodi:docname="API Compatability Table.svg"
   inkscape:version="0.92.5 (2060ec1f9f, 2020-04-08)"><metadata
     id="metadata8"><rdf:RDF><cc:Work
         rdf:about=""><dc:format>image/svg+xml</dc:format><dc:type
           rdf:resource="http://purl.org/dc/dcmitype/StillImage" /><dc:title></dc:title></cc:Work></rdf:RDF></metadata><defs
     id="defs6"><clipPath
       clipPathUnits="userSpaceOnUse"
       id="clipPath20"><path
         d="M -2,-2 H 491 V 122 H -2 Z"
         id="path18"
         inkscape:connector-curvature="0" /></clipPath></defs><sodipodi:namedview
     pagecolor="#ffffff"
     bordercolor="#666666"
     borderopacity="1"
     objecttolerance="10"
     gridtolerance="10"
     guidetolerance="10"
     inkscape:pageopacity="0"
     inkscape:pageshadow="2"
     inkscape:window-width="2400"
     inkscape:window-height="1271"
     id="namedview4"
     showgrid="false"
     fit-margin-top="0"
     fit-margin-left="0"
     fit-margin-right="0"
     fit-margin-bottom="0"
     inkscape:zoom="1.636051"
     inkscape:cx="189.59371"
     inkscape:cy="-31.173372"
     inkscape:window-x="4791"
     inkscape:window-y="-9"
     inkscape:window-maximized="1"
     inkscape:current-layer="g10" /><g
     id="g10"
     inkscape:groupmode="layer"
     inkscape:label="Untitled spreadsheet - Sheet1 (5)"
     transform="matrix(1.3333333,0,0,-1.3333333,-282.49999,744.99998)"><g
       id="g12"
       transform="matrix(1,0,0,-1,0,612)"><g
         id="g14"
         transform="matrix(0.75,0,0,0.75,212.625,54)"><g
           id="g16"
           clip-path="url(#clipPath20)"><path
             d="M 0,0 H 190 V 77 H 0 Z"
             style="fill:#ffffff;fill-opacity:1;fill-rule:nonzero;stroke:none"
             id="path22"
             inkscape:connector-curvature="0" /><path
             d="M 189,-1 H 490 V 77 H 189 Z"
             style="fill:#ffffff;fill-opacity:1;fill-rule:nonzero;stroke:none"
             id="path24"
             inkscape:connector-curvature="0" /><path
             d="m -1,76 h 191 v 45 H -1 Z"
             style="fill:#ffffff;fill-opacity:1;fill-rule:nonzero;stroke:none"
             id="path26"
             inkscape:connector-curvature="0" /><path
             d="M 189,76 H 309 V 99 H 189 Z"
             style="fill:#ff8080;fill-opacity:1;fill-rule:nonzero;stroke:none"
             id="path28"
             inkscape:connector-curvature="0" /><path
             d="M 308,76 H 490 V 99 H 308 Z"
             style="fill:#80c680;fill-opacity:1;fill-rule:nonzero;stroke:none"
             id="path30"
             inkscape:connector-curvature="0" /><path
             d="m 189,98 h 120 v 23 H 189 Z"
             style="fill:#80c680;fill-opacity:1;fill-rule:nonzero;stroke:none"
             id="path32"
             inkscape:connector-curvature="0" /><path
             d="m 308,98 h 182 v 23 H 308 Z"
             style="fill:#ff8080;fill-opacity:1;fill-rule:nonzero;stroke:none"
             id="path34"
             inkscape:connector-curvature="0" /><g
             id="g36"><path
               d="m 70,77 v 0 21 H 69 V 77 Z m 0,22 v 0 21 H 69 V 99 Z M 190,0 v 0 21 h -1 V 0 Z m 0,22 v 0 54 h -1 V 22 Z m 0,55 v 0 21 h -1 V 77 Z m 0,22 v 0 21 h -1 V 99 Z M 309,22 v 0 54 h -1 V 22 Z m 0,55 v 0 21 h -1 V 77 Z m 0,22 v 0 21 h -1 V 99 Z M 189,21 v 0 h 300 v 1 H 189 Z M 0,76 v 0 h 489 v 1 H 0 Z m 69,22 v 0 h 420 v 1 H 69 Z"
               style="fill:#000000;fill-opacity:0.14901961;fill-rule:nonzero;stroke:none"
               id="path38"
               inkscape:connector-curvature="0" /></g><path
             d="M -0.5,-1 V 121 M -1,-0.5 H 490 M -1,120.5 H 490 M 489.5,-1 v 122"
             style="fill:none;stroke:#000000;stroke-width:1;stroke-linecap:butt;stroke-linejoin:miter;stroke-miterlimit:10;stroke-dasharray:none;stroke-opacity:1"
             id="path40"
             inkscape:connector-curvature="0" /><text
             transform="translate(327,15.263702)"
             style="font-variant:normal;font-weight:bold;font-size:14.29999924px;font-family:Roboto;-inkscape-font-specification:Roboto-Bold;writing-mode:lr-tb;fill:#000000;fill-opacity:1;fill-rule:nonzero;stroke:none"
             id="text44"><tspan
               x="0 9.6095991 18.833099"
               y="0"
               sodipodi:role="line"
               id="tspan42">API</tspan></text>
<text
             transform="translate(195,36.263702)"
             style="font-variant:normal;font-weight:normal;font-size:14.29999924px;font-family:Roboto;-inkscape-font-specification:Roboto-Regular;writing-mode:lr-tb;fill:#000000;fill-opacity:1;fill-rule:nonzero;stroke:none"
             id="text48"><tspan
               x="0 7.6933994 15.458299 23.480598 32.575397 36.450699 44.573097 57.257195 60.789295 64.721794 68.253899 76.276192 80.037094 88.059395 91.820297 99.84259"
               y="0"
               sodipodi:role="line"
               id="tspan46">LabVIEW - 1.0.26</tspan></text>
<text
             transform="translate(208,53.017853)"
             style="font-variant:normal;font-weight:normal;font-size:14.29999924px;font-family:Roboto;-inkscape-font-specification:Roboto-Regular;writing-mode:lr-tb;fill:#000000;fill-opacity:1;fill-rule:nonzero;stroke:none"
             id="text52"><tspan
               x="0 7.8792996 15.644199 22.565399 30.330297 33.862396 37.794899 41.326996 49.349297 53.110195 61.132496 64.893394 72.915695"
               y="0"
               sodipodi:role="line"
               id="tspan50">Java - 1.0.28</tspan></text>
<text
             transform="translate(210,69.772)"
             style="font-variant:normal;font-weight:normal;font-size:14.29999924px;font-family:Roboto;-inkscape-font-specification:Roboto-Regular;writing-mode:lr-tb;fill:#000000;fill-opacity:1;fill-rule:nonzero;stroke:none"
             id="text56"><tspan
               x="0 9.2949991 17.3888 25.482597 29.014698 32.947197 36.479298 44.501598 48.262497 56.284798 60.045696 68.067993"
               y="0"
               sodipodi:role="line"
               id="tspan54">C++ - 1.0.27</tspan></text>
<text
             transform="translate(314,36.263702)"
             style="font-variant:normal;font-weight:normal;font-size:14.29999924px;font-family:Roboto;-inkscape-font-specification:Roboto-Regular;writing-mode:lr-tb;fill:#000000;fill-opacity:1;fill-rule:nonzero;stroke:none"
             id="text60"><tspan
               x="0 7.6933994 15.458299 23.480598 32.575397 36.450699 44.573097 57.257195 60.789295 64.721794 68.253899 76.276192 80.037094 88.059395 91.820297 99.84259 103.37469 108.25099 116.40199 121.23539 124.76749 132.64679 140.21149 150.95079 158.51549 163.34889"
               y="0"
               sodipodi:role="line"
               id="tspan58">LabVIEW - 1.1.8 (or newer)</tspan></text>
<text
             transform="translate(328,53.017853)"
             style="font-variant:normal;font-weight:normal;font-size:14.29999924px;font-family:Roboto;-inkscape-font-specification:Roboto-Regular;writing-mode:lr-tb;fill:#000000;fill-opacity:1;fill-rule:nonzero;stroke:none"
             id="text64"><tspan
               x="0 7.8792996 15.644199 22.565399 30.330297 33.862396 37.794899 41.326996 49.349297 53.110195 61.132496 64.893394 72.915695 76.447792 81.324097 89.47509 94.308495 97.840591 105.71989 113.28459 124.02389 131.58859 136.422"
               y="0"
               sodipodi:role="line"
               id="tspan62">Java - 1.1.8 (or newer)</tspan></text>
<text
             transform="translate(330,69.772)"
             style="font-variant:normal;font-weight:normal;font-size:14.29999924px;font-family:Roboto;-inkscape-font-specification:Roboto-Regular;writing-mode:lr-tb;fill:#000000;fill-opacity:1;fill-rule:nonzero;stroke:none"
             id="text68"><tspan
               x="0 9.2949991 17.3888 25.482597 29.014698 32.947197 36.479298 44.501598 48.262497 56.284798 60.045696 68.067993 71.600098 76.476395 84.627396 89.460793 92.992897 100.87219 108.43689 119.17619 126.74089 131.5743"
               y="0"
               sodipodi:role="line"
               id="tspan66">C++ - 1.1.8 (or newer)</tspan></text>
<text
             transform="translate(4,103.2637)"
             style="font-variant:normal;font-weight:bold;font-size:14.29999924px;font-family:Roboto;-inkscape-font-specification:Roboto-Bold;writing-mode:lr-tb;fill:#000000;fill-opacity:1;fill-rule:nonzero;stroke:none"
             id="text72"><tspan
               x="0 7.8220997 11.611599 16.816799 29.186298 39.682499 47.347298 52.552498"
               y="0"
               sodipodi:role="line"
               id="tspan70">Firmware</tspan></text>
<text
             transform="translate(75,92.2637)"
             style="font-variant:normal;font-weight:normal;font-size:14.29999924px;font-family:Roboto;-inkscape-font-specification:Roboto-Regular;writing-mode:lr-tb;fill:#000000;fill-opacity:1;fill-rule:nonzero;stroke:none"
             id="text76"><tspan
               x="0 8.0222998 11.783199 19.805498 23.566399 31.588697 39.610996 43.143097 48.019398 56.170395 61.003796 64.535896 72.415192 79.979897 90.719193 98.28389 103.11729"
               y="0"
               sodipodi:role="line"
               id="tspan74">1.1.26 (or newer)</tspan></text>
<text
             transform="translate(199,92.2637)"
             style="font-variant:normal;font-weight:normal;font-size:14.29999924px;font-family:Roboto;-inkscape-font-specification:Roboto-Regular;writing-mode:lr-tb;fill:#000000;fill-opacity:1;fill-rule:nonzero;stroke:none"
             id="text80"><tspan
               x="0 10.1816 18.3326 22.994398 26.526499 35.821499 43.972496 56.499294 64.521599 72.286491 76.948296 80.408897 88.43119 91.891792"
               y="0"
               sodipodi:role="line"
               id="tspan78">Not Compatible</tspan></text>
<text
             transform="translate(362,92.2637)"
             style="font-variant:normal;font-weight:normal;font-size:14.29999924px;font-family:Roboto;-inkscape-font-specification:Roboto-Regular;writing-mode:lr-tb;fill:#000000;fill-opacity:1;fill-rule:nonzero;stroke:none"
             id="text84"><tspan
               x="0 9.2949991 17.445999 29.972797 37.995098 45.759998 50.421795 53.882397 61.904697 65.365295"
               y="0"
               sodipodi:role="line"
               id="tspan82">Compatible</tspan></text>
<text
             transform="translate(74,114.2637)"
             style="font-variant:normal;font-weight:normal;font-size:14.29999924px;font-family:Roboto;-inkscape-font-specification:Roboto-Regular;writing-mode:lr-tb;fill:#000000;fill-opacity:1;fill-rule:nonzero;stroke:none"
             id="text88"><tspan
               x="0 8.0222998 11.783199 19.805498 23.566399 31.588697 39.610996 47.633297 51.165398 56.041695 64.192696 69.026093 72.558197 80.709198 84.169792 92.220695 99.785393 104.61879"
               y="0"
               sodipodi:role="line"
               id="tspan86">1.0.385 (or older)</tspan></text>
<text
             transform="translate(212,114.2637)"
             style="font-variant:normal;font-weight:normal;font-size:14.29999924px;font-family:Roboto;-inkscape-font-specification:Roboto-Regular;writing-mode:lr-tb;fill:#000000;fill-opacity:1;fill-rule:nonzero;stroke:none"
             id="text92"><tspan
               x="0 9.2949991 17.445999 29.972797 37.995098 45.759998 50.421795 53.882397 61.904697 65.365295"
               y="0"
               sodipodi:role="line"
               id="tspan90">Compatible</tspan></text>
<text
             transform="translate(349,114.2637)"
             style="font-variant:normal;font-weight:normal;font-size:14.29999924px;font-family:Roboto;-inkscape-font-specification:Roboto-Regular;writing-mode:lr-tb;fill:#000000;fill-opacity:1;fill-rule:nonzero;stroke:none"
             id="text96"><tspan
               x="0 10.1816 18.3326 22.994398 26.526499 35.821499 43.972496 56.499294 64.521599 72.286491 76.948296 80.408897 88.43119 91.891792"
               y="0"
               sodipodi:role="line"
               id="tspan94">Not Compatible</tspan></text>
</g></g></g></g></svg>