<?xml version="1.0" encoding="UTF-8" standalone="no"?>
<!-- Created with Inkscape (http://www.inkscape.org/) -->

<svg
   xmlns:dc="http://purl.org/dc/elements/1.1/"
   xmlns:cc="http://creativecommons.org/ns#"
   xmlns:rdf="http://www.w3.org/1999/02/22-rdf-syntax-ns#"
   xmlns:svg="http://www.w3.org/2000/svg"
   xmlns="http://www.w3.org/2000/svg"
   xmlns:sodipodi="http://sodipodi.sourceforge.net/DTD/sodipodi-0.dtd"
   xmlns:inkscape="http://www.inkscape.org/namespaces/inkscape"
   width="900"
   height="400"
   viewBox="0 0 238.12501 105.83333"
   version="1.1"
   id="svg8481"
   inkscape:version="0.92.5 (2060ec1f9f, 2020-04-08)"
   sodipodi:docname="APP_Dovetail_RollPin.svg">
  <defs
     id="defs8475" />
  <sodipodi:namedview
     id="base"
     pagecolor="#ffffff"
     bordercolor="#666666"
     borderopacity="1.0"
     inkscape:pageopacity="0.0"
     inkscape:pageshadow="2"
     inkscape:zoom="3.959798"
     inkscape:cx="145.99232"
     inkscape:cy="206.37551"
     inkscape:document-units="mm"
     inkscape:current-layer="layer1"
     showgrid="false"
     units="px"
     inkscape:window-width="1920"
     inkscape:window-height="1001"
     inkscape:window-x="-9"
     inkscape:window-y="-9"
     inkscape:window-maximized="1"
     inkscape:snap-text-baseline="true" />
  <metadata
     id="metadata8478">
    <rdf:RDF>
      <cc:Work
         rdf:about="">
        <dc:format>image/svg+xml</dc:format>
        <dc:type
           rdf:resource="http://purl.org/dc/dcmitype/StillImage" />
        <dc:title />
      </cc:Work>
    </rdf:RDF>
  </metadata>
  <g
     inkscape:label="Layer 1"
     inkscape:groupmode="layer"
     id="layer1"
     transform="translate(0,-191.16667)">
    <g
       style="fill:none;fill-rule:evenodd;stroke-linecap:round;stroke-linejoin:round"
       transform="matrix(0.53079674,0,0,0.51146845,-12.372005,192.89437)"
       id="g6848">
      <path
         style="fill:#404040"
         d="m 200.9,84.38 0.15,10.08 3.28,-3.19 v 23.97 l -3.28,-3.19 -0.15,10.07 -8.1,8.13 -10.15,0.15 3.08,3.21 -23.56,-0.05 -0.08,-0.08 2.93,-3.08 -10.15,-0.15 -8,-8.08 0.05,-10.17 3.21,3.07 V 91.43 l -3.2,3.08 -0.06,-10.17 8.05,-8.06 10.37,0.1 h 17.36 l 10.1,-0.1 z"
         id="path2705"
         inkscape:connector-curvature="0" />
      <path
         style="fill:#be0000"
         d="m 146.76,84.34 0.07,10.44 0.1,-0.27 3.2,-3.08 v 23.64 l -3.21,-3.07 -0.08,-0.1 -0.08,10.27 -8,8.08 -10.15,0.15 3.07,3.21 H 107.9 l 3.08,-3.21 -10.15,-0.15 -8.03,-8.03 V 84.29 l 8.08,-8.01 10.36,0.1 h 17.36 l 10.11,-0.1 z"
         id="path2707"
         inkscape:connector-curvature="0" />
      <path
         style="fill:#000020"
         d="m 154.92,76.28 h 37.83 l -10.1,0.1 h -17.36 z"
         id="path2709"
         inkscape:connector-curvature="0" />
      <path
         style="fill:#000020"
         d="m 100.88,76.28 h 37.83 l -10.11,0.1 h -17.36 z"
         id="path2711"
         inkscape:connector-curvature="0" />
      <path
         style="fill:#000020"
         d="m 146.93,94.51 -0.1,0.27 -0.07,-10.44 h 0.11 z"
         id="path2713"
         inkscape:connector-curvature="0" />
      <path
         style="fill:#000020"
         d="m 160.37,86.35 v 16.77 l 27.26,0.11 -27.42,0.06 -0.1,-16.94 h -3.17 l -0.11,33.98 -0.06,-34.14 34.14,0.01 z"
         id="path2715"
         inkscape:connector-curvature="0" />
      <path
         style="fill:#000020"
         d="M 136.85,120.33 136.7,86.35 h -33.81 l -0.1,33.98 -0.06,-34.14 h 34.13 z"
         id="path2717"
         inkscape:connector-curvature="0" />
      <path
         style="fill:#000020"
         d="m 146.92,112 -0.05,10.17 h -0.11 l 0.08,-10.27 z"
         id="path2719"
         inkscape:connector-curvature="0" />
      <path
         style="fill:#000020"
         d="m 162.17,133.56 23.56,0.05 0.1,0.08 -24,-0.01 0.26,-0.2 z"
         id="path2721"
         inkscape:connector-curvature="0" />
      <path
         style="fill:#000020"
         d="m 107.8,133.69 0.1,-0.08 h 23.78 l 0.11,0.08 z"
         id="path2723"
         inkscape:connector-curvature="0" />
      <path
         d="m 92.71,94.73 3.42,-3.42 v 23.96 l -3.42,-3.43"
         id="path2725"
         inkscape:connector-curvature="0"
         style="stroke:#000020;stroke-width:0.141" />
      <path
         d="m 97.49,79.69 -0.45,0.45"
         id="path2727"
         inkscape:connector-curvature="0"
         style="stroke:#000020;stroke-width:0.141" />
      <path
         d="m 97.58,79.6 -0.73,0.73"
         id="path2729"
         inkscape:connector-curvature="0"
         style="stroke:#000020;stroke-width:0.141" />
      <path
         d="m 146.78,122.11 v -10.27 l 3.42,3.43 V 91.31 l -3.42,3.42 V 84.47 l -8.21,-8.21 H 128.3 l 3.42,3.42 h -23.95 l 3.42,-3.42 h -10.27 l -2.73,2.73"
         id="path2731"
         inkscape:connector-curvature="0"
         style="stroke:#000020;stroke-width:0.141" />
      <path
         d="m 111.19,130.32 h -10.27 l -1.07,-1.07"
         id="path2733"
         inkscape:connector-curvature="0"
         style="stroke:#000020;stroke-width:0.141" />
      <path
         d="m 100.19,76.99 -0.05,0.05"
         id="path2735"
         inkscape:connector-curvature="0"
         style="stroke:#000020;stroke-width:0.141" />
      <path
         d="m 100.67,76.51 0.02,-0.02"
         id="path2737"
         inkscape:connector-curvature="0"
         style="stroke:#000020;stroke-width:0.141" />
      <path
         d="m 100.67,76.51 0.02,-0.02"
         id="path2739"
         inkscape:connector-curvature="0"
         style="stroke:#000020;stroke-width:0.141" />
      <path
         d="m 102.64,119.5 v 0.9 h 34.22 V 86.18 h -34.22 v 33.32"
         id="path2741"
         inkscape:connector-curvature="0"
         style="stroke:#000020;stroke-width:0.141" />
      <path
         d="m 133.43,86.18 v 17.11 H 106.06 V 86.18"
         id="path2743"
         inkscape:connector-curvature="0"
         style="stroke:#000020;stroke-width:0.141" />
      <path
         d="m 107.77,133.74 h 23.95"
         id="path2745"
         inkscape:connector-curvature="0"
         style="stroke:#000020;stroke-width:0.141" />
      <path
         d="m 107.89,79.55 2.98,-2.98 -3.1,3.11"
         id="path2747"
         inkscape:connector-curvature="0"
         style="stroke:#000020;stroke-width:0.141" />
      <path
         d="m 110.87,76.57 0.32,-0.31 h 17.11 l 2.8,2.79 -2.32,-2.32"
         id="path2749"
         inkscape:connector-curvature="0"
         style="stroke:#000020;stroke-width:0.141" />
      <path
         d="m 128.3,130.32 h 10.27 l 3.52,-3.52"
         id="path2751"
         inkscape:connector-curvature="0"
         style="stroke:#000020;stroke-width:0.141" />
      <path
         d="M 131.72,79.68 131.1,79.05"
         id="path2753"
         inkscape:connector-curvature="0"
         style="stroke:#000020;stroke-width:0.141" />
      <path
         d="m 139.21,129.68 0.33,-0.33 -0.12,0.12"
         id="path2755"
         inkscape:connector-curvature="0"
         style="stroke:#000020;stroke-width:0.141" />
      <path
         d="m 139.18,76.87 0.36,0.35 0.55,0.56"
         id="path2757"
         inkscape:connector-curvature="0"
         style="stroke:#000020;stroke-width:0.141" />
      <path
         d="m 140.73,128.16 -1.49,1.49"
         id="path2759"
         inkscape:connector-curvature="0"
         style="stroke:#000020;stroke-width:0.141" />
      <path
         d="m 139.54,129.35 0.55,-0.55"
         id="path2761"
         inkscape:connector-curvature="0"
         style="stroke:#000020;stroke-width:0.141" />
      <path
         d="m 140.05,77.73 -0.83,-0.82"
         id="path2763"
         inkscape:connector-curvature="0"
         style="stroke:#000020;stroke-width:0.141" />
      <path
         d="M 139.54,77.22 139.3,76.99"
         id="path2765"
         inkscape:connector-curvature="0"
         style="stroke:#000020;stroke-width:0.141" />
      <path
         d="m 141.24,127.65 0.1,-0.1"
         id="path2767"
         inkscape:connector-curvature="0"
         style="stroke:#000020;stroke-width:0.141" />
      <path
         d="m 141.71,79.39 -0.26,-0.26"
         id="path2769"
         inkscape:connector-curvature="0"
         style="stroke:#000020;stroke-width:0.141" />
      <path
         d="m 92.71,111.84 v 10.27 l 7.14,7.14"
         id="path2773"
         inkscape:connector-curvature="0"
         style="stroke:#000020;stroke-width:0.176" />
      <path
         d="m 92.81,122.21 0.47,0.47"
         id="path2775"
         inkscape:connector-curvature="0"
         style="stroke:#000020;stroke-width:0.176" />
      <path
         d="m 93.28,122.68 -0.57,-0.57 v -14.21 -1.16 15.37 l 7.14,7.14"
         id="path2777"
         inkscape:connector-curvature="0"
         style="stroke:#000020;stroke-width:0.176" />
      <path
         d="m 92.81,122.21 0.47,0.47"
         id="path2779"
         inkscape:connector-curvature="0"
         style="stroke:#000020;stroke-width:0.176" />
      <path
         d="m 92.71,120.66 v -8.82 10.27 l 0.57,0.57"
         id="path2781"
         inkscape:connector-curvature="0"
         style="stroke:#000020;stroke-width:0.176" />
      <path
         d="M 92.71,117.18 V 102.26"
         id="path2783"
         inkscape:connector-curvature="0"
         style="stroke:#000020;stroke-width:0.176" />
      <path
         d="m 92.71,112.54 v -1.16 0.46"
         id="path2785"
         inkscape:connector-curvature="0"
         style="stroke:#000020;stroke-width:0.176" />
      <path
         d="m 92.71,111.38 v -17.4 1.16"
         id="path2787"
         inkscape:connector-curvature="0"
         style="stroke:#000020;stroke-width:0.176" />
      <path
         d="m 92.71,107.9 v -2.32 1.16"
         id="path2789"
         inkscape:connector-curvature="0"
         style="stroke:#000020;stroke-width:0.176" />
      <path
         d="m 92.71,105.58 v -3.48 1.16"
         id="path2791"
         inkscape:connector-curvature="0"
         style="stroke:#000020;stroke-width:0.176" />
      <path
         d="M 92.71,102.1 V 84.47 l 0.45,-0.45"
         id="path2793"
         inkscape:connector-curvature="0"
         style="stroke:#000020;stroke-width:0.176" />
      <path
         d="m 93.16,84.02 -0.45,0.45 v 9.51 -8.12 8.87"
         id="path2795"
         inkscape:connector-curvature="0"
         style="stroke:#000020;stroke-width:0.176" />
      <path
         d="m 92.71,85.86 v -1.39 l 0.45,-0.45"
         id="path2797"
         inkscape:connector-curvature="0"
         style="stroke:#000020;stroke-width:0.176" />
      <path
         d="m 92.81,84.37 4.23,-4.23"
         id="path2799"
         inkscape:connector-curvature="0"
         style="stroke:#000020;stroke-width:0.176" />
      <path
         d="m 94.26,82.92 -1.45,1.45 0.75,-0.75"
         id="path2801"
         inkscape:connector-curvature="0"
         style="stroke:#000020;stroke-width:0.176" />
      <path
         d="m 93.97,83.21 3.07,-3.07"
         id="path2803"
         inkscape:connector-curvature="0"
         style="stroke:#000020;stroke-width:0.176" />
      <path
         d="m 99.28,128.68 -2.02,-2.02 0.17,0.17"
         id="path2805"
         inkscape:connector-curvature="0"
         style="stroke:#000020;stroke-width:0.176" />
      <path
         d="m 96.78,126.18 0.48,0.48 -0.48,-0.48"
         id="path2807"
         inkscape:connector-curvature="0"
         style="stroke:#000020;stroke-width:0.176" />
      <path
         d="m 97.26,126.66 2.02,2.02"
         id="path2809"
         inkscape:connector-curvature="0"
         style="stroke:#000020;stroke-width:0.176" />
      <path
         d="m 98.99,78.19 -1.73,1.73 1.73,-1.73"
         id="path2811"
         inkscape:connector-curvature="0"
         style="stroke:#000020;stroke-width:0.176" />
      <path
         d="m 97.49,79.69 0.7,-0.7"
         id="path2813"
         inkscape:connector-curvature="0"
         style="stroke:#000020;stroke-width:0.176" />
      <path
         d="m 98.19,78.99 -0.7,0.7"
         id="path2815"
         inkscape:connector-curvature="0"
         style="stroke:#000020;stroke-width:0.176" />
      <path
         d="m 100.67,76.51 -0.25,0.25 -0.23,0.23"
         id="path2817"
         inkscape:connector-curvature="0"
         style="stroke:#000020;stroke-width:0.176" />
      <path
         d="m 100.42,76.76 0.25,-0.25"
         id="path2819"
         inkscape:connector-curvature="0"
         style="stroke:#000020;stroke-width:0.176" />
      <path
         d="m 107.77,133.74 3.42,-3.42 -3.42,3.42"
         id="path2821"
         inkscape:connector-curvature="0"
         style="stroke:#000020;stroke-width:0.176" />
      <path
         d="m 108.09,133.43 3.1,-3.11"
         id="path2823"
         inkscape:connector-curvature="0"
         style="stroke:#000020;stroke-width:0.176" />
      <path
         d="m 128.3,130.32 2.8,2.8 -2.8,-2.8"
         id="path2825"
         inkscape:connector-curvature="0"
         style="stroke:#000020;stroke-width:0.176" />
      <path
         d="m 128.78,130.8 2.94,2.94"
         id="path2827"
         inkscape:connector-curvature="0"
         style="stroke:#000020;stroke-width:0.176" />
      <path
         d="m 131.72,133.74 -0.62,-0.62"
         id="path2829"
         inkscape:connector-curvature="0"
         style="stroke:#000020;stroke-width:0.176" />
      <path
         d="m 138.83,130.06 0.12,-0.12 -0.38,0.38"
         id="path2831"
         inkscape:connector-curvature="0"
         style="stroke:#000020;stroke-width:0.176" />
      <path
         d="m 138.83,130.06 0.12,-0.12 -0.38,0.38"
         id="path2833"
         inkscape:connector-curvature="0"
         style="stroke:#000020;stroke-width:0.176" />
      <path
         d="m 139.03,129.86 0.19,-0.19 -0.27,0.27 0.47,-0.47"
         id="path2835"
         inkscape:connector-curvature="0"
         style="stroke:#000020;stroke-width:0.176" />
      <path
         d="m 139.03,129.86 0.19,-0.19 -0.27,0.27 0.47,-0.47"
         id="path2837"
         inkscape:connector-curvature="0"
         style="stroke:#000020;stroke-width:0.176" />
      <path
         d="m 139.3,76.99 -0.23,-0.23 -0.24,-0.25"
         id="path2839"
         inkscape:connector-curvature="0"
         style="stroke:#000020;stroke-width:0.176" />
      <path
         d="m 138.97,76.66 0.21,0.21"
         id="path2841"
         inkscape:connector-curvature="0"
         style="stroke:#000020;stroke-width:0.176" />
      <path
         d="m 139.07,76.76 -0.24,-0.25"
         id="path2843"
         inkscape:connector-curvature="0"
         style="stroke:#000020;stroke-width:0.176" />
      <path
         d="m 138.97,76.66 0.21,0.21"
         id="path2845"
         inkscape:connector-curvature="0"
         style="stroke:#000020;stroke-width:0.176" />
      <path
         d="m 141.24,127.65 -1.15,1.15 -0.87,0.87 0.02,-0.02"
         id="path2847"
         inkscape:connector-curvature="0"
         style="stroke:#000020;stroke-width:0.176" />
      <path
         d="m 140.09,128.8 -0.87,0.87 0.02,-0.02"
         id="path2849"
         inkscape:connector-curvature="0"
         style="stroke:#000020;stroke-width:0.176" />
      <path
         d="m 140.09,77.78 0.33,0.33"
         id="path2851"
         inkscape:connector-curvature="0"
         style="stroke:#000020;stroke-width:0.176" />
      <path
         d="m 140.98,78.67 0.47,0.46 -0.1,-0.09"
         id="path2853"
         inkscape:connector-curvature="0"
         style="stroke:#000020;stroke-width:0.176" />
      <path
         d="m 141.45,79.13 -0.47,-0.46"
         id="path2855"
         inkscape:connector-curvature="0"
         style="stroke:#000020;stroke-width:0.176" />
      <path
         d="m 146.46,122.43 0.32,-0.32 -4.69,4.69"
         id="path2857"
         inkscape:connector-curvature="0"
         style="stroke:#000020;stroke-width:0.176" />
      <path
         d="m 146.46,122.43 0.32,-0.32 -4.69,4.69"
         id="path2859"
         inkscape:connector-curvature="0"
         style="stroke:#000020;stroke-width:0.176" />
      <path
         d="m 146.78,122.11 -0.32,0.32"
         id="path2861"
         inkscape:connector-curvature="0"
         style="stroke:#000020;stroke-width:0.176" />
      <path
         d="m 146.78,122.11 -0.32,0.32"
         id="path2863"
         inkscape:connector-curvature="0"
         style="stroke:#000020;stroke-width:0.176" />
      <path
         d="m 146.8,122.11 v -10.27 l 3.42,3.43 V 91.31 l -3.42,3.42 V 84.47 l 8.21,-8.21 h 10.27 l -3.43,3.42 h 23.96 l -3.1,-3.11 2.92,2.92 -3.24,-3.23 h -17.11 l -2.86,2.85"
         id="path2868"
         inkscape:connector-curvature="0"
         style="stroke:#000020;stroke-width:0.141" />
      <path
         d="m 151.21,126.52 0.24,0.24"
         id="path2870"
         inkscape:connector-curvature="0"
         style="stroke:#000020;stroke-width:0.141" />
      <path
         d="m 165.28,130.32 h -10.27 l -3.52,-3.52"
         id="path2872"
         inkscape:connector-curvature="0"
         style="stroke:#000020;stroke-width:0.141" />
      <path
         d="m 150.93,80.33 0.74,-0.73"
         id="path2874"
         inkscape:connector-curvature="0"
         style="stroke:#000020;stroke-width:0.141" />
      <path
         d="m 154.27,76.99 -0.04,0.05"
         id="path2876"
         inkscape:connector-curvature="0"
         style="stroke:#000020;stroke-width:0.141" />
      <path
         d="m 154.76,76.51 0.01,-0.02"
         id="path2878"
         inkscape:connector-curvature="0"
         style="stroke:#000020;stroke-width:0.141" />
      <path
         d="m 154.76,76.51 0.01,-0.02"
         id="path2880"
         inkscape:connector-curvature="0"
         style="stroke:#000020;stroke-width:0.141" />
      <path
         d="M 156.72,120.4 V 86.18 h 34.22 v 34.22 h -34.22"
         id="path2882"
         inkscape:connector-curvature="0"
         style="stroke:#000020;stroke-width:0.141" />
      <path
         d="m 187.52,86.18 v 17.11 H 160.14 V 86.18"
         id="path2884"
         inkscape:connector-curvature="0"
         style="stroke:#000020;stroke-width:0.141" />
      <path
         d="m 161.85,133.74 h 23.96"
         id="path2886"
         inkscape:connector-curvature="0"
         style="stroke:#000020;stroke-width:0.141" />
      <path
         d="m 161.85,79.68 2.89,-2.89"
         id="path2888"
         inkscape:connector-curvature="0"
         style="stroke:#000020;stroke-width:0.141" />
      <path
         d="m 183.7,131.64 -1.31,-1.32 h 10.26 l 8.22,-8.21 v -10.27"
         id="path2890"
         inkscape:connector-curvature="0"
         style="stroke:#000020;stroke-width:0.141" />
      <path
         d="M 200.87,94.73 V 84.47 l -7.25,-7.25 -0.97,-0.96 h -10.26 l 0.32,0.31"
         id="path2892"
         inkscape:connector-curvature="0"
         style="stroke:#000020;stroke-width:0.141" />
      <path
         d="m 185.63,79.49 0.18,0.19"
         id="path2894"
         inkscape:connector-curvature="0"
         style="stroke:#000020;stroke-width:0.141" />
      <path
         d="m 193.37,129.6 0.25,-0.25 -0.27,0.28"
         id="path2896"
         inkscape:connector-curvature="0"
         style="stroke:#000020;stroke-width:0.141" />
      <path
         d="m 193.62,129.35 0.34,-0.33"
         id="path2898"
         inkscape:connector-curvature="0"
         style="stroke:#000020;stroke-width:0.141" />
      <path
         d="m 194.04,77.65 -0.85,-0.86"
         id="path2900"
         inkscape:connector-curvature="0"
         style="stroke:#000020;stroke-width:0.141" />
      <path
         d="m 193.17,76.77 0.45,0.45 -0.28,-0.27"
         id="path2902"
         inkscape:connector-curvature="0"
         style="stroke:#000020;stroke-width:0.141" />
      <path
         d="m 193.62,77.22 0.42,0.42"
         id="path2904"
         inkscape:connector-curvature="0"
         style="stroke:#000020;stroke-width:0.141" />
      <path
         d="m 193.75,129.22 1.07,-1.06 -0.28,0.27"
         id="path2906"
         inkscape:connector-curvature="0"
         style="stroke:#000020;stroke-width:0.141" />
      <path
         d="m 194.82,128.16 0.23,-0.24"
         id="path2908"
         inkscape:connector-curvature="0"
         style="stroke:#000020;stroke-width:0.141" />
      <path
         d="m 194.43,78.04 0.04,0.03"
         id="path2910"
         inkscape:connector-curvature="0"
         style="stroke:#000020;stroke-width:0.141" />
      <path
         d="M 204.29,115.27 V 91.31"
         id="path2912"
         inkscape:connector-curvature="0"
         style="stroke:#000020;stroke-width:0.141" />
      <path
         d="m 150.87,126.18 -3.2,-3.2 -0.87,-0.87 4.41,4.41"
         id="path2916"
         inkscape:connector-curvature="0"
         style="stroke:#000020;stroke-width:0.176" />
      <path
         d="m 151.21,126.52 -4.41,-4.41 0.96,0.96 3.11,3.11"
         id="path2918"
         inkscape:connector-curvature="0"
         style="stroke:#000020;stroke-width:0.176" />
      <path
         d="m 146.8,122.11 0.87,0.87"
         id="path2920"
         inkscape:connector-curvature="0"
         style="stroke:#000020;stroke-width:0.176" />
      <path
         d="m 146.8,122.11 0.87,0.87"
         id="path2922"
         inkscape:connector-curvature="0"
         style="stroke:#000020;stroke-width:0.176" />
      <path
         d="m 147.76,123.07 0.21,0.22"
         id="path2924"
         inkscape:connector-curvature="0"
         style="stroke:#000020;stroke-width:0.176" />
      <path
         d="m 147.76,123.07 0.21,0.22"
         id="path2926"
         inkscape:connector-curvature="0"
         style="stroke:#000020;stroke-width:0.176" />
      <path
         d="m 151.45,126.76 0.04,0.04"
         id="path2928"
         inkscape:connector-curvature="0"
         style="stroke:#000020;stroke-width:0.176" />
      <path
         d="m 151.49,126.8 -0.04,-0.04"
         id="path2930"
         inkscape:connector-curvature="0"
         style="stroke:#000020;stroke-width:0.176" />
      <path
         d="m 150.87,126.18 0.64,0.65"
         id="path2932"
         inkscape:connector-curvature="0"
         style="stroke:#000020;stroke-width:0.176" />
      <path
         d="m 153.37,128.68 -2.02,-2.02 2.02,2.02"
         id="path2934"
         inkscape:connector-curvature="0"
         style="stroke:#000020;stroke-width:0.176" />
      <path
         d="m 153.08,78.19 -1.73,1.73 1.73,-1.73"
         id="path2936"
         inkscape:connector-curvature="0"
         style="stroke:#000020;stroke-width:0.176" />
      <path
         d="m 154.27,76.99 0.24,-0.23 0.25,-0.25"
         id="path2938"
         inkscape:connector-curvature="0"
         style="stroke:#000020;stroke-width:0.176" />
      <path
         d="m 154.51,76.76 0.25,-0.25"
         id="path2940"
         inkscape:connector-curvature="0"
         style="stroke:#000020;stroke-width:0.176" />
      <path
         d="m 161.85,133.74 2.89,-2.88 -2.89,2.88"
         id="path2942"
         inkscape:connector-curvature="0"
         style="stroke:#000020;stroke-width:0.176" />
      <path
         d="m 162.42,133.18 2.86,-2.86"
         id="path2944"
         inkscape:connector-curvature="0"
         style="stroke:#000020;stroke-width:0.176" />
      <path
         d="m 164.74,130.86 0.54,-0.54"
         id="path2946"
         inkscape:connector-curvature="0"
         style="stroke:#000020;stroke-width:0.176" />
      <path
         d="m 183.7,131.64 1.79,1.79 -1.79,-1.79"
         id="path2948"
         inkscape:connector-curvature="0"
         style="stroke:#000020;stroke-width:0.176" />
      <path
         d="m 183.7,131.64 2.11,2.1"
         id="path2950"
         inkscape:connector-curvature="0"
         style="stroke:#000020;stroke-width:0.176" />
      <path
         d="m 185.49,133.43 0.32,0.31"
         id="path2952"
         inkscape:connector-curvature="0"
         style="stroke:#000020;stroke-width:0.176" />
      <path
         d="m 193.96,129.02 0.22,-0.22 -1.53,1.52"
         id="path2954"
         inkscape:connector-curvature="0"
         style="stroke:#000020;stroke-width:0.176" />
      <path
         d="m 194.54,128.43 -1.89,1.89"
         id="path2956"
         inkscape:connector-curvature="0"
         style="stroke:#000020;stroke-width:0.176" />
      <path
         d="m 193.07,129.91 0.28,-0.28"
         id="path2958"
         inkscape:connector-curvature="0"
         style="stroke:#000020;stroke-width:0.176" />
      <path
         d="m 193.07,129.91 0.28,-0.28"
         id="path2960"
         inkscape:connector-curvature="0"
         style="stroke:#000020;stroke-width:0.176" />
      <path
         d="m 192.91,76.51 0.43,0.44"
         id="path2962"
         inkscape:connector-curvature="0"
         style="stroke:#000020;stroke-width:0.176" />
      <path
         d="m 192.91,76.51 0.26,0.26"
         id="path2964"
         inkscape:connector-curvature="0"
         style="stroke:#000020;stroke-width:0.176" />
      <path
         d="m 193.16,76.77 h 0.01"
         id="path2966"
         inkscape:connector-curvature="0"
         style="stroke:#000020;stroke-width:0.176" />
      <path
         d="m 194.04,77.65 0.39,0.39"
         id="path2968"
         inkscape:connector-curvature="0"
         style="stroke:#000020;stroke-width:0.176" />
      <path
         d="m 194.04,77.64 0.09,0.09 -0.09,-0.08"
         id="path2970"
         inkscape:connector-curvature="0"
         style="stroke:#000020;stroke-width:0.176" />
      <path
         d="m 196.39,126.59 0.83,-0.83"
         id="path2972"
         inkscape:connector-curvature="0"
         style="stroke:#000020;stroke-width:0.176" />
      <path
         d="m 197.22,125.76 -0.83,0.83"
         id="path2974"
         inkscape:connector-curvature="0"
         style="stroke:#000020;stroke-width:0.176" />
      <path
         d="m 197.15,125.82 -0.07,0.07"
         id="path2976"
         inkscape:connector-curvature="0"
         style="stroke:#000020;stroke-width:0.176" />
      <path
         d="m 197.15,125.82 -0.07,0.07"
         id="path2978"
         inkscape:connector-curvature="0"
         style="stroke:#000020;stroke-width:0.176" />
      <path
         d="m 200.87,111.84 3.01,3.02 -3.01,-3.02 3.42,3.43"
         id="path2980"
         inkscape:connector-curvature="0"
         style="stroke:#000020;stroke-width:0.176" />
      <path
         d="m 204.29,91.31 -3.42,3.42 3.07,-3.07 -3.07,3.07"
         id="path2982"
         inkscape:connector-curvature="0"
         style="stroke:#000020;stroke-width:0.176" />
      <path
         d="m 203.88,114.86 0.41,0.41"
         id="path2984"
         inkscape:connector-curvature="0"
         style="stroke:#000020;stroke-width:0.176" />
      <path
         d="m 203.94,91.66 0.35,-0.35"
         id="path2986"
         inkscape:connector-curvature="0"
         style="stroke:#000020;stroke-width:0.176" />
    </g>
    <path
       style="fill:none;stroke:#000000;stroke-width:0.5291667;stroke-linecap:butt;stroke-linejoin:miter;stroke-miterlimit:4;stroke-dasharray:none;stroke-opacity:1"
       d="m 65.56488,241.37135 -6.09741,-14.28147 -10.588183,-0.0229 10.588182,0.0229 z"
       id="path9484"
       inkscape:connector-curvature="0"
       sodipodi:nodetypes="ccccc" />
    <g
       id="g9728"
       transform="translate(0,2.7475152)">
      <g
         id="g7587"
         transform="matrix(0.26023656,0,0,0.26023656,128.90236,216.75854)"
         style="fill:none;fill-rule:evenodd;stroke-linecap:round;stroke-linejoin:round">
        <path
           inkscape:connector-curvature="0"
           id="path3754"
           d="m 232.68,103.34 v 47.82 l -54.63,0.05 54.63,0.11 -0.02,6.01 h -59.18 l -0.08,-1.1 -0.03,-0.43 -0.07,-0.06 -0.75,-2.24 -1.13,-1.65 -1.32,-1.29 -1.32,-0.82 -2.22,-0.76 -0.84,-0.08 -2.29,0.09 -0.43,0.1 -1.8,0.64 -1.8,1.15 -1.16,1.3 -1.14,1.98 -0.58,2.06 -0.12,1.13 -12.4,0.07 3.19,3.29 -82.78,0.06 -0.02,-21.9 82.79,-0.05 v -17.09 l -82.79,-0.05 v -18.34 l 91.97,-0.01 0.16,0.99 0.08,0.49 0.1,0.48 0.61,1.71 0.83,1.31 1.32,1.46 1.48,0.97 2.01,0.81 1.46,0.18 h 1 l 1.47,-0.17 2.56,-1.08 1.8,-1.47 0.82,-1.15 0.77,-1.52 0.47,-1.53 0.1,-0.49 0.05,-1.14 0.08,0.05 z"
           style="fill:#404040" />
        <path
           inkscape:connector-curvature="0"
           id="path3756"
           d="m 156.52,50.28 0.08,0.49 0.1,0.48 0.29,0.89 1,1.94 1.31,1.48 1.79,1.16 2.17,0.8 1.49,0.16 h 0.49 l 1.48,-0.16 2.39,-0.91 1.72,-1.27 0.29,-0.16 v -0.14 l 1.1,-1.55 0.66,-1.3 0.42,-1.42 0.1,-0.49 0.08,-1.1 h 59.18 l 0.02,54.16 -59.15,-0.11 -0.08,-0.05 -0.05,-0.99 -0.03,-0.44 -0.07,-0.05 -0.74,-2.24 -1.14,-1.65 -0.5,-0.65 -1.8,-1.3 -2.23,-0.92 -1.64,-0.16 h -0.67 l -1.48,0.16 -0.27,0.1 -2.07,0.87 -0.98,0.66 -1.14,0.99 -1.13,1.64 -0.81,2.02 -0.1,0.47 -0.08,0.5 -0.16,1.14 -91.97,0.01 V 84.83 l 82.79,-0.05 V 67.68 L 64.39,67.63 64.41,49.18 156.4,49.16 Z"
           style="fill:#be0000" />
        <path
           inkscape:connector-curvature="0"
           id="path3758"
           d="m 166.89,94.94 2.23,0.92 1.8,1.3 0.5,0.65 1.14,1.65 0.74,2.24 0.1,0.49 0.05,0.99 -0.05,1.14 -0.1,0.49 -0.47,1.53 -0.77,1.52 -0.82,1.15 -1.8,1.47 -2.56,1.08 -1.47,0.17 h -1 l -1.46,-0.18 -2.01,-0.81 -1.48,-0.97 -1.32,-1.46 -0.83,-1.31 -0.61,-1.71 -0.1,-0.48 -0.08,-0.49 v -2.13 l 0.08,-0.5 0.1,-0.47 0.81,-2.02 1.13,-1.64 1.14,-0.99 0.98,-0.66 2.07,-0.87 0.27,-0.1 1.48,-0.16 h 0.67 z"
           style="fill:#ffffff" />
        <path
           inkscape:connector-curvature="0"
           id="path3760"
           d="m 156.52,50.28 -0.12,-1.12 0.1,0.02 z"
           style="fill:#000020" />
        <path
           inkscape:connector-curvature="0"
           id="path3762"
           d="m 171.12,55.18 -0.29,0.16 0.29,-0.3 z"
           style="fill:#000020" />
        <path
           inkscape:connector-curvature="0"
           id="path3764"
           d="m 64.39,67.8 v -0.17 l 82.79,0.05 v 17.1 l -82.79,0.05 v -0.16 l 82.62,-0.05 V 67.85 Z"
           style="fill:#000020" />
        <path
           inkscape:connector-curvature="0"
           id="path3766"
           d="m 173.4,102.19 -0.1,-0.49 0.07,0.05 z"
           style="fill:#000020" />
        <path
           inkscape:connector-curvature="0"
           id="path3768"
           d="m 156.52,104.32 -0.16,-0.99 0.16,-1.14 z"
           style="fill:#000020" />
        <path
           inkscape:connector-curvature="0"
           id="path3770"
           d="m 64.39,121.84 v -0.16 l 82.79,0.05 v 17.09 l -82.79,0.05 v -0.16 l 82.62,-0.05 v -16.77 z"
           style="fill:#000020" />
        <path
           inkscape:connector-curvature="0"
           id="path3772"
           d="m 232.68,151.32 -54.63,-0.11 54.63,-0.05 z"
           style="fill:#000020" />
        <path
           inkscape:connector-curvature="0"
           id="path3774"
           d="m 173.4,156.23 -0.1,-0.49 0.07,0.06 z"
           style="fill:#000020" />
        <path
           inkscape:connector-curvature="0"
           id="path3776"
           d="m 156.5,157.33 -0.1,0.02 0.12,-1.13 z"
           style="fill:#000020" />
        <path
           inkscape:connector-curvature="0"
           id="path3778"
           d="m 147.01,138.66 -82.62,0.05 v -16.87 l 82.62,0.05 z"
           style="fill:#404040" />
        <path
           inkscape:connector-curvature="0"
           id="path3780"
           d="M 147.01,84.62 64.39,84.67 V 67.8 l 82.62,0.05 z"
           style="fill:#be0000" />
        <path
           style="stroke:#000020;stroke-width:0.141"
           inkscape:connector-curvature="0"
           id="path3782"
           d="m 64.32,103.3 v -0.02 h 0.65 51.05 26.68 1.01 l 0.02,0.02" />
        <path
           style="stroke:#000020;stroke-width:0.141"
           inkscape:connector-curvature="0"
           id="path3784"
           d="M 64.32,103.28 V 57.42 h 98.21 l -1.32,-0.5 -0.84,-0.46 -0.78,-0.56 -0.71,-0.64 -0.64,-0.71 -0.56,-0.79 -0.46,-0.84 -0.37,-0.88 -0.26,-0.92 -0.17,-0.95 -0.02,-0.48" />
        <path
           style="stroke:#000020;stroke-width:0.141"
           inkscape:connector-curvature="0"
           id="path3786"
           d="m 64.32,95.07 h 98.21 l -1.32,0.5 -0.84,0.47 -0.78,0.55" />
        <path
           style="stroke:#000020;stroke-width:0.141"
           inkscape:connector-curvature="0"
           id="path3788"
           d="m 64.32,84.8 h 82.81 V 67.69 H 64.32" />
        <path
           style="stroke:#000020;stroke-width:0.141"
           inkscape:connector-curvature="0"
           id="path3790"
           d="M 64.32,57.42 V 49.21" />
        <path
           style="stroke:#000020;stroke-width:0.141"
           inkscape:connector-curvature="0"
           id="path3792"
           d="m 143.71,103.28 h 12.66 l 0.05,-0.96 0.17,-0.94 0.26,-0.93 0.37,-0.88 0.46,-0.84 0.56,-0.78" />
        <path
           style="stroke:#000020;stroke-width:0.141"
           inkscape:connector-curvature="0"
           id="path3794"
           d="m 162.53,95.07 0.49,-0.13 1.91,-0.21 1.9,0.21 0.49,0.13 1.32,0.5 0.84,0.47 0.78,0.55" />
        <path
           style="stroke:#000020;stroke-width:0.141"
           inkscape:connector-curvature="0"
           id="path3796"
           d="m 162.53,57.42 0.49,0.13 1.91,0.22 1.9,-0.22 0.49,-0.13 h 10.61 v -8.21" />
        <path
           style="stroke:#000020;stroke-width:0.141"
           inkscape:connector-curvature="0"
           id="path3798"
           d="m 167.32,95.07 h 10.61 v 2.05 h 54.75 v 6.16 h -54.75 v -6.16" />
        <path
           style="stroke:#000020;stroke-width:0.141"
           inkscape:connector-curvature="0"
           id="path3800"
           d="m 173.45,49.69 -0.02,0.48 -0.16,0.95 -0.27,0.92 -0.37,0.88 -0.46,0.84 -0.56,0.79 -0.63,0.71 -0.72,0.64 -0.78,0.56 -0.84,0.46 -1.32,0.5" />
        <path
           style="stroke:#000020;stroke-width:0.141"
           inkscape:connector-curvature="0"
           id="path3802"
           d="m 171.61,97.95 0.56,0.78 0.46,0.84 0.37,0.88 0.27,0.93 0.16,0.94 0.05,0.96 h 4.45" />
        <path
           style="stroke:#000020;stroke-width:0.141"
           inkscape:connector-curvature="0"
           id="path3804"
           d="M 177.93,57.42 V 95.07" />
        <path
           style="stroke:#000020;stroke-width:0.141"
           inkscape:connector-curvature="0"
           id="path3806"
           d="m 177.93,55.37 h 54.75 v 41.75" />
        <path
           style="stroke:#000020;stroke-width:0.141"
           inkscape:connector-curvature="0"
           id="path3808"
           d="M 232.68,55.37 V 49.21" />
        <path
           style="stroke:#000020;stroke-width:0.176"
           inkscape:connector-curvature="0"
           id="path3812"
           d="m 146.18,49.21 h 1.16 -83.02" />
        <path
           style="stroke:#000020;stroke-width:0.176"
           inkscape:connector-curvature="0"
           id="path3814"
           d="m 64.32,49.21 h 83.02 -1.16" />
        <path
           style="stroke:#000020;stroke-width:0.176"
           inkscape:connector-curvature="0"
           id="path3816"
           d="m 147.34,49.21 h 9.03 l 0.03,0.48 -0.03,-0.48 h -5.55" />
        <path
           style="stroke:#000020;stroke-width:0.176"
           inkscape:connector-curvature="0"
           id="path3818"
           d="m 147.34,49.21 h 4.64" />
        <path
           style="stroke:#000020;stroke-width:0.176"
           inkscape:connector-curvature="0"
           id="path3820"
           d="m 156.37,49.21 0.03,0.48" />
        <path
           style="stroke:#000020;stroke-width:0.176"
           inkscape:connector-curvature="0"
           id="path3822"
           d="m 158.24,97.95 0.43,-0.49 -0.43,0.49 0.64,-0.72 0.71,-0.64 -0.71,0.64 -0.21,0.23" />
        <path
           style="stroke:#000020;stroke-width:0.176"
           inkscape:connector-curvature="0"
           id="path3824"
           d="m 158.94,97.17 0.65,-0.58" />
        <path
           style="stroke:#000020;stroke-width:0.176"
           inkscape:connector-curvature="0"
           id="path3826"
           d="m 171.61,97.95 -0.63,-0.72 -0.72,-0.64" />
        <path
           style="stroke:#000020;stroke-width:0.176"
           inkscape:connector-curvature="0"
           id="path3828"
           d="m 170.54,96.85 0.44,0.38 0.63,0.72 -0.43,-0.49" />
        <path
           style="stroke:#000020;stroke-width:0.176"
           inkscape:connector-curvature="0"
           id="path3830"
           d="m 170.26,96.59 0.72,0.64" />
        <path
           style="stroke:#000020;stroke-width:0.176"
           inkscape:connector-curvature="0"
           id="path3832"
           d="m 173.48,49.21 h 4.02 -4.02 l -0.03,0.48 0.03,-0.48" />
        <path
           style="stroke:#000020;stroke-width:0.176"
           inkscape:connector-curvature="0"
           id="path3834"
           d="m 173.48,49.21 -0.03,0.48" />
        <path
           style="stroke:#000020;stroke-width:0.176"
           inkscape:connector-curvature="0"
           id="path3836"
           d="m 177.5,49.21 h 1.16 -1.16" />
        <path
           style="stroke:#000020;stroke-width:0.176"
           inkscape:connector-curvature="0"
           id="path3838"
           d="m 176.34,49.21 h 1.59" />
        <path
           style="stroke:#000020;stroke-width:0.176"
           inkscape:connector-curvature="0"
           id="path3840"
           d="m 178.66,49.21 h 54.02" />
        <path
           style="stroke:#000020;stroke-width:0.141"
           inkscape:connector-curvature="0"
           id="path3845"
           d="M 147.13,160.79 H 64.32 v -3.42 h 92.05 l 0.03,-0.52" />
        <path
           style="stroke:#000020;stroke-width:0.141"
           inkscape:connector-curvature="0"
           id="path3847"
           d="m 64.32,157.37 v -18.48 h 82.81 v -14.75 -2.36 H 64.32 V 103.3 h 92.05 l 0.05,0.96 0.17,0.94 0.26,0.92 0.37,0.89 0.46,0.84 0.56,0.78 0.64,0.72 0.71,0.64 0.78,0.55 0.84,0.47 1.32,0.5 H 64.32" />
        <path
           style="stroke:#000020;stroke-width:0.141"
           inkscape:connector-curvature="0"
           id="path3849"
           d="m 64.32,149.15 h 98.21 l -1.32,0.51 -0.84,0.46 -0.39,0.28" />
        <path
           style="stroke:#000020;stroke-width:0.141"
           inkscape:connector-curvature="0"
           id="path3851"
           d="M 64.32,138.89 V 121.78" />
        <path
           style="stroke:#000020;stroke-width:0.141"
           inkscape:connector-curvature="0"
           id="path3853"
           d="m 156.59,155.46 0.26,-0.92" />
        <path
           style="stroke:#000020;stroke-width:0.141"
           inkscape:connector-curvature="0"
           id="path3855"
           d="m 159.31,150.93 -0.43,0.39 -0.64,0.71 -0.56,0.78" />
        <path
           style="stroke:#000020;stroke-width:0.141"
           inkscape:connector-curvature="0"
           id="path3857"
           d="m 162.53,149.15 0.49,-0.13 1.91,-0.21 1.9,0.21 0.49,0.13 h 10.61 v 8.22 h -4.45 l -0.03,-0.52" />
        <path
           style="stroke:#000020;stroke-width:0.141"
           inkscape:connector-curvature="0"
           id="path3859"
           d="m 162.53,111.51 0.49,0.13 1.91,0.21 1.9,-0.21 0.49,-0.13 1.32,-0.5 0.84,-0.47 0.78,-0.55 0.72,-0.64 0.63,-0.72 0.56,-0.78 0.46,-0.84 0.37,-0.89 0.27,-0.92 0.16,-0.94 0.05,-0.96 h 4.45 v 8.21 h -10.61" />
        <path
           style="stroke:#000020;stroke-width:0.141"
           inkscape:connector-curvature="0"
           id="path3861"
           d="m 167.32,149.15 1.32,0.51 0.84,0.46 0.39,0.28" />
        <path
           style="stroke:#000020;stroke-width:0.141"
           inkscape:connector-curvature="0"
           id="path3863"
           d="m 172.17,152.81 -0.56,-0.78 -0.63,-0.71 -0.43,-0.39" />
        <path
           style="stroke:#000020;stroke-width:0.141"
           inkscape:connector-curvature="0"
           id="path3865"
           d="M 173.27,155.46 173,154.54" />
        <path
           style="stroke:#000020;stroke-width:0.141"
           inkscape:connector-curvature="0"
           id="path3867"
           d="m 177.93,157.37 h 54.75 v -0.74 -5.42 h -54.75" />
        <path
           style="stroke:#000020;stroke-width:0.141"
           inkscape:connector-curvature="0"
           id="path3869"
           d="M 177.93,149.15 V 111.51" />
        <path
           style="stroke:#000020;stroke-width:0.141"
           inkscape:connector-curvature="0"
           id="path3871"
           d="m 177.93,109.46 h 54.75 v 41.75" />
        <path
           style="stroke:#000020;stroke-width:0.141"
           inkscape:connector-curvature="0"
           id="path3873"
           d="m 177.93,103.3 h 54.75 v 6.16" />
        <path
           style="stroke:#000020;stroke-width:0.176"
           inkscape:connector-curvature="0"
           id="path3877"
           d="m 147.13,160.79 -3.42,-3.42" />
        <path
           style="stroke:#000020;stroke-width:0.176"
           inkscape:connector-curvature="0"
           id="path3879"
           d="m 143.71,157.37 2.74,2.74" />
        <path
           style="stroke:#000020;stroke-width:0.176"
           inkscape:connector-curvature="0"
           id="path3881"
           d="m 144.13,157.79 3,3" />
        <path
           style="stroke:#000020;stroke-width:0.176"
           inkscape:connector-curvature="0"
           id="path3883"
           d="m 156.4,156.85 0.02,-0.44 -0.02,0.44" />
        <path
           style="stroke:#000020;stroke-width:0.176"
           inkscape:connector-curvature="0"
           id="path3885"
           d="m 156.4,156.85 0.02,-0.44 0.16,-0.94 -0.16,0.94 0.17,-0.95" />
        <path
           style="stroke:#000020;stroke-width:0.176"
           inkscape:connector-curvature="0"
           id="path3887"
           d="m 156.58,155.47 0.01,-0.01" />
        <path
           style="stroke:#000020;stroke-width:0.176"
           inkscape:connector-curvature="0"
           id="path3889"
           d="m 156.85,154.54 0.37,-0.89 0.46,-0.84 -0.46,0.84 -0.37,0.89" />
        <path
           style="stroke:#000020;stroke-width:0.176"
           inkscape:connector-curvature="0"
           id="path3891"
           d="m 156.85,154.54 0.37,-0.89 0.46,-0.84" />
        <path
           style="stroke:#000020;stroke-width:0.176"
           inkscape:connector-curvature="0"
           id="path3893"
           d="m 159.31,150.93 0.28,-0.25 -0.28,0.25" />
        <path
           style="stroke:#000020;stroke-width:0.176"
           inkscape:connector-curvature="0"
           id="path3895"
           d="m 159.31,150.93 0.28,-0.25 0.39,-0.28" />
        <path
           style="stroke:#000020;stroke-width:0.176"
           inkscape:connector-curvature="0"
           id="path3897"
           d="m 159.98,150.4 -0.39,0.28 0.39,-0.28" />
        <path
           style="stroke:#000020;stroke-width:0.176"
           inkscape:connector-curvature="0"
           id="path3899"
           d="m 170.55,150.93 -0.29,-0.25 -0.39,-0.28" />
        <path
           style="stroke:#000020;stroke-width:0.176"
           inkscape:connector-curvature="0"
           id="path3901"
           d="m 169.87,150.4 0.39,0.28 0.29,0.25" />
        <path
           style="stroke:#000020;stroke-width:0.176"
           inkscape:connector-curvature="0"
           id="path3903"
           d="m 169.87,150.4 0.39,0.28 0.29,0.25" />
        <path
           style="stroke:#000020;stroke-width:0.176"
           inkscape:connector-curvature="0"
           id="path3905"
           d="m 172.17,152.81 0.46,0.84 -0.46,-0.84 0.46,0.84 0.37,0.89 -0.37,-0.89" />
        <path
           style="stroke:#000020;stroke-width:0.176"
           inkscape:connector-curvature="0"
           id="path3907"
           d="m 172.63,153.65 0.37,0.89" />
        <path
           style="stroke:#000020;stroke-width:0.176"
           inkscape:connector-curvature="0"
           id="path3909"
           d="m 173.45,156.85 -0.02,-0.44 0.02,0.44" />
        <path
           style="stroke:#000020;stroke-width:0.176"
           inkscape:connector-curvature="0"
           id="path3911"
           d="m 173.43,156.41 -0.16,-0.94 0.16,0.94 0.02,0.44" />
        <path
           style="stroke:#000020;stroke-width:0.176"
           inkscape:connector-curvature="0"
           id="path3913"
           d="m 173.27,155.47 v -0.01" />
        <path
           style="stroke:#000020;stroke-width:0.176"
           inkscape:connector-curvature="0"
           id="path3915"
           d="m 173.43,156.41 -0.16,-0.95" />
      </g>
      <path
         sodipodi:nodetypes="ccccc"
         inkscape:connector-curvature="0"
         id="path9484-2"
         d="m 173.00725,241.75166 9.67489,-17.45182 14.15388,0.0684 -14.15388,-0.0684 z"
         style="fill:none;stroke:#000000;stroke-width:0.50661194;stroke-linecap:butt;stroke-linejoin:round;stroke-miterlimit:4;stroke-dasharray:none;stroke-opacity:1" />
      <ellipse
         ry="2.2559721"
         rx="2.2457464"
         cy="243.67973"
         cx="171.85431"
         id="path9503"
         style="fill:none;fill-opacity:1;stroke:#000000;stroke-width:0.58159959;stroke-linejoin:round;stroke-miterlimit:4;stroke-dasharray:none;stroke-opacity:1" />
    </g>
    <text
       xml:space="preserve"
       style="font-style:normal;font-variant:normal;font-weight:normal;font-stretch:normal;font-size:4.23333311px;line-height:1.25;font-family:Roboto;-inkscape-font-specification:'Roboto, Normal';font-variant-ligatures:normal;font-variant-caps:normal;font-variant-numeric:normal;font-feature-settings:normal;text-align:start;letter-spacing:0px;word-spacing:0px;writing-mode:lr-tb;text-anchor:start;fill:#000000;fill-opacity:1;stroke:none;stroke-width:0.26458332"
       x="32.74044"
       y="228.54164"
       id="text1193"><tspan
         sodipodi:role="line"
         x="32.74044"
         y="228.54164"
         id="tspan1191"
         style="stroke-width:0.26458332"><tspan
           x="32.74044"
           y="228.54164"
           style="font-style:normal;font-variant:normal;font-weight:bold;font-stretch:normal;font-family:Roboto;-inkscape-font-specification:'Roboto Bold';stroke-width:0.26458332"
           id="tspan1189">Dovetail</tspan></tspan></text>
    <text
       xml:space="preserve"
       style="font-style:normal;font-variant:normal;font-weight:normal;font-stretch:normal;font-size:4.23333311px;line-height:1.25;font-family:Roboto;-inkscape-font-specification:'Roboto, Normal';font-variant-ligatures:normal;font-variant-caps:normal;font-variant-numeric:normal;font-feature-settings:normal;text-align:start;letter-spacing:0px;word-spacing:0px;writing-mode:lr-tb;text-anchor:start;fill:#000000;fill-opacity:1;stroke:none;stroke-width:0.26458332"
       x="198.73564"
       y="228.67586"
       id="text1187"><tspan
         sodipodi:role="line"
         x="198.73564"
         y="228.67586"
         id="tspan1185"
         style="stroke-width:0.26458332"><tspan
           x="198.73564"
           y="228.67586"
           style="font-style:normal;font-variant:normal;font-weight:bold;font-stretch:normal;font-family:Roboto;-inkscape-font-specification:'Roboto Bold';stroke-width:0.26458332"
           id="tspan1183">Roll Pin</tspan></tspan></text>
  </g>
</svg>
