<?xml version="1.0" encoding="UTF-8" standalone="no"?>
<svg
   xmlns:dc="http://purl.org/dc/elements/1.1/"
   xmlns:cc="http://creativecommons.org/ns#"
   xmlns:rdf="http://www.w3.org/1999/02/22-rdf-syntax-ns#"
   xmlns:svg="http://www.w3.org/2000/svg"
   xmlns="http://www.w3.org/2000/svg"
   xmlns:sodipodi="http://sodipodi.sourceforge.net/DTD/sodipodi-0.dtd"
   xmlns:inkscape="http://www.inkscape.org/namespaces/inkscape"
   width="900"
   height="400"
   viewBox="0 0 238.12501 105.83333"
   version="1.1"
   id="svg1971"
   sodipodi:docname="ISO.svg"
   style="fill:none;fill-rule:evenodd;stroke-linecap:round;stroke-linejoin:round"
   inkscape:version="0.92.5 (2060ec1f9f, 2020-04-08)">
  <metadata
     id="metadata1975">
    <rdf:RDF>
      <cc:Work
         rdf:about="">
        <dc:format>image/svg+xml</dc:format>
        <dc:type
           rdf:resource="http://purl.org/dc/dcmitype/StillImage" />
        <dc:title></dc:title>
      </cc:Work>
    </rdf:RDF>
  </metadata>
  <sodipodi:namedview
     pagecolor="#ffffff"
     bordercolor="#666666"
     borderopacity="1"
     objecttolerance="10"
     gridtolerance="10"
     guidetolerance="10"
     inkscape:pageopacity="0"
     inkscape:pageshadow="2"
     inkscape:window-width="2400"
     inkscape:window-height="1271"
     id="namedview1973"
     showgrid="false"
     units="px"
     inkscape:zoom="1.3581944"
     inkscape:cx="645.61138"
     inkscape:cy="336.54502"
     inkscape:window-x="2391"
     inkscape:window-y="-9"
     inkscape:window-maximized="1"
     inkscape:current-layer="svg1971" />
  <desc
     id="desc1654">Composer Export</desc>
  <script
     type="text/ecmascript"
     id="script1656"><![CDATA[
if(typeof(top) != "undefined")
{
	top.ShowPaper = ShowPaper;
}
function ShowHotSpot(evt,hotspotid)
{
	var svgDocument = evt.target.ownerDocument;
	var strId = "hotspot."+hotspotid;
	var hotspot = svgDocument.getElementById(strId);
	if(hotspot)
		hotspot.setAttribute("opacity",".5");
}
function HideHotSpot(evt,hotspotid)
{
	var svgDocument = evt.target.ownerDocument;
	var strId = "hotspot."+hotspotid;
	var hotspot = svgDocument.getElementById(strId);
	if(hotspot)
		hotspot.setAttribute("opacity","0");

	var toolTip = svgDocument.getElementById('ToolTip');
	if(toolTip)
		toolTip.setAttribute("visibility","hidden");
}
function ShowToolTip(evt,hotspotid,strTooltip)
{
	if(strTooltip=="")
	return;

	// change text
	var svgDocument = evt.target.ownerDocument;
	var tiptext = svgDocument.getElementById('ToolTipText');
	if( !tiptext )
	return;
	tiptext.firstChild.nodeValue = " " + strTooltip + "  " ;

	// show tooltip before, else some refresh issue

	var toolTip = svgDocument.getElementById('ToolTip');
	if(!toolTip)
	return;

	toolTip.setAttribute("visibility","visible");
	toolTip.setAttribute("opacity",".95");

	// move tooltip
	// get viewbox

	var root = svgDocument.documentElement;
	var vbox = (root.getAttribute("viewBox")).split(' ');
	var x0 = parseFloat(vbox[0]);
	var y0 = parseFloat(vbox[1]);
	var vboxW = parseFloat(vbox[2]);
	var vboxH = parseFloat(vbox[3]);

	// get default width of svg

	var strW = root.getAttribute("width");
	var svgW = parseFloat(strW);
	if(strW.indexOf('mm') != -1)
	svgW *= 3.779;

	var strH = root.getAttribute("height");
	var svgH = parseFloat(strH);
	if(strH.indexOf('mm') != -1)
	svgH *= 3.779;  	// 96 dpi  -> 96/25.4 = 3.779

	// update the viewbox / width / height if svg is embedded in html with zoom fit all
	var realx0 = x0;
	var realy0 = y0;
	var realvboxW = vboxW;
	var realvboxH = vboxH;
	var realsvgW = svgW;
	var realsvgH = svgH;

	if ((typeof(top) == "undefined") || (typeof(top.svgctl1) != "undefined")) // embedded in html
	{
		// get window size in pxl

		svgW = window.innerWidth;
		svgH = window.innerHeight;

		// calculate real viewbox

		realsvgW = svgW;
		realsvgH = svgH;
		if((svgW / svgH) > (vboxW / vboxH))
		{
			realvboxW = (vboxH * svgW) / svgH;
			realvboxH = vboxH;
			realx0 = x0 - (realvboxW - vboxW)/2 ;
		}
		else
		{
			realvboxH = (vboxW * svgH) / svgW;
			realvboxW = vboxW;
			realy0 = y0 - (realvboxH - vboxH)/2 ;
		}
	}

	// get user zoom/pan

	var newScale = root.currentScale;
	var translation = root.currentTranslate;

	// transform pxl to user unit

	var xPos = (((evt.clientX+10- translation.x)/newScale) * realvboxW)/realsvgW  + realx0 ;
	var yPos = (((evt.clientY+5- translation.y)/newScale) * realvboxH)/ realsvgH  + realy0 ;
	var scaleForWidth = ( (1 / newScale) * realvboxH) / realsvgH;

	// move tooltip

	toolTip.setAttribute("transform", "translate(" + xPos + "," + yPos + ")" );

	// resize tooltip

	var fontsize = 12;
	tiptext.setAttribute("font-size",fontsize*scaleForWidth);
	tiptext.setAttribute("y", fontsize*scaleForWidth);
	var tipBG = svgDocument.getElementById('ToolTipBG');
	var outline = tiptext.getBBox();
	if(tipBG)
	{
		tipBG.setAttribute("stroke-width", 1*scaleForWidth);
		tipBG.setAttribute("width", Number(outline.width) );
		tipBG.setAttribute("height", Number(outline.height) + fontsize*.5*scaleForWidth );
	}
	var ToolTipShadow = svgDocument.getElementById('ToolTipShadow');
	if(ToolTipShadow)
	{
		ToolTipShadow.setAttribute("width", Number(outline.width) );
		ToolTipShadow.setAttribute("height", Number(outline.height) + fontsize*.5*scaleForWidth );
		ToolTipShadow.setAttribute("x", 3*scaleForWidth);
		ToolTipShadow.setAttribute("y", 3*scaleForWidth);
	}
}
function ShowPaper()
{
  var svgDocument = getDocument();
  var paper = svgDocument.getElementById("paperID");
  if(paper)
  {
    paper.setAttribute("transform","scale(1)");
    paper.setAttribute("opacity","1");
    paper.setAttribute("visibility","visible");
  }
  var svg = svgDocument.getRootElement();
  if(svg)
  {
    svg.setAttribute("width","307.000mm");
    svg.setAttribute("height","220.000mm");
    svg.setAttribute("viewBox","-5.000000 -5.000000 307.000000 220.000000");
  }
}
]]></script>
  <defs
     id="defs1658" />
  <g
     id="g6290"
     transform="matrix(0.43510312,0,0,0.43510312,53.922777,7.533236)">
    <path
       inkscape:connector-curvature="0"
       style="fill:#404040"
       d="m 184.17,33.3 -2.19,1.33 v 0.18 l 11.53,6.7 0.44,-0.01 1.96,-1.17 h 0.56 l 7.03,4.11 5.56,9.67 0.38,0.3 -64.22,37.12 -0.31,0.19 -0.41,0.2 -0.45,0.54 -1.84,0.78 -13.27,7.7 0.05,3.27 -26.18,15.14 -8.15,4.65 -0.11,0.03 -0.09,11.4 -0.23,0.05 -3.94,2.31 -0.08,16.31 -5.48,3.19 h -0.62 l -26.35,-15.26 -5.58,-9.64 -0.15,-0.39 0.04,-16.36 4.23,-2.52 0.09,-11.2 34.2,-19.73 0.25,-0.07 -0.13,-3.33 13.17,-7.66 1.85,-0.78 0.44,-0.54 0.61,-0.24 0.38,-0.08 0.07,-0.22 69.36,-40.08 h 0.55 z"
       id="path1662" />
    <path
       inkscape:connector-curvature="0"
       style="fill:#be0000"
       d="m 222.35,55.39 -2.19,1.33 0.03,0.14 11.65,6.75 0.48,-0.12 2.15,-1.21 7.22,4.24 2.12,3.61 3.68,6.5 V 85 l -0.08,0.13 -2.31,1.33 -0.2,0.04 0.2,13.84 0.07,-0.1 2.12,-1.22 0.08,0.1 0.09,8.29 -74.23,42.89 -2.65,1.28 -0.39,0.44 -47.31,27.38 -0.44,-0.01 -26.36,-15.25 -2.79,-4.74 -3.08,-5.3 0.08,-16.31 3.94,-2.31 0.23,-0.05 0.14,4.55 0.06,-15.98 8.15,-4.65 26.18,-15.14 -0.05,-3.27 13.27,-7.7 1.84,-0.78 0.45,-0.54 0.41,-0.2 0.23,0.05 0.08,-0.24 64.22,-37.12 5.71,-3.26 z"
       id="path1664" />
    <path
       inkscape:connector-curvature="0"
       style="fill:#000020"
       d="m 107.16,69.49 -0.38,0.08 0.21,-0.26 0.24,-0.04 z"
       id="path1666" />
    <path
       inkscape:connector-curvature="0"
       style="fill:#000020"
       d="m 90.84,82.12 -0.25,0.07 0.03,-3.36 0.09,-0.04 z"
       id="path1668" />
    <path
       inkscape:connector-curvature="0"
       style="fill:#000020"
       d="m 247.49,85 v -8.37 l 0.07,0.06 z"
       id="path1670" />
    <path
       inkscape:connector-curvature="0"
       style="fill:#000020"
       d="m 244.9,86.5 0.2,-0.04 0.07,13.78 -0.07,0.1 z"
       id="path1672" />
    <path
       inkscape:connector-curvature="0"
       style="fill:#000020"
       d="m 145.14,91.77 -0.23,-0.05 0.31,-0.19 z"
       id="path1674" />
    <path
       inkscape:connector-curvature="0"
       style="fill:#000020"
       d="m 247.29,99.02 0.26,-0.07 v 8.42 l -0.09,0.04 -0.09,-8.29 z"
       id="path1676" />
    <path
       inkscape:connector-curvature="0"
       style="fill:#000020"
       d="m 52.03,132 -0.05,-16.32 0.09,-0.04 z"
       id="path1678" />
    <path
       inkscape:connector-curvature="0"
       style="fill:#000020"
       d="m 94.6,139.98 -0.14,-4.55 0.09,-11.4 0.11,-0.03 z"
       id="path1680" />
    <path
       inkscape:connector-curvature="0"
       d="m 94.55,135.32 v 5.03 l -4.36,-2.52"
       id="path1682"
       style="stroke:#000020;stroke-width:0.141" />
    <path
       inkscape:connector-curvature="0"
       d="m 93.58,159.35 v -18.72 l 16.21,9.36 -16.21,9.36 31.46,18.16 v -18.72 l -15.25,-8.8"
       id="path1684"
       style="stroke:#000020;stroke-width:0.141" />
    <path
       inkscape:connector-curvature="0"
       d="m 94.55,124.14 29.52,17.05 v 16.2 l 4.35,2.52 v 16.2"
       id="path1686"
       style="stroke:#000020;stroke-width:0.141" />
    <path
       inkscape:connector-curvature="0"
       d="m 124.07,157.39 38.71,-22.35 v -16.21 l -38.71,22.36"
       id="path1688"
       style="stroke:#000020;stroke-width:0.141" />
    <path
       inkscape:connector-curvature="0"
       d="m 128.42,159.91 38.72,-22.36 -4.36,-2.51"
       id="path1690"
       style="stroke:#000020;stroke-width:0.141" />
    <path
       inkscape:connector-curvature="0"
       d="m 162.78,118.83 -29.52,-17.04 -4.35,2.52"
       id="path1692"
       style="stroke:#000020;stroke-width:0.141" />
    <path
       inkscape:connector-curvature="0"
       d="m 130.98,99.76 0.11,-0.07"
       id="path1694"
       style="stroke:#000020;stroke-width:0.141" />
    <path
       inkscape:connector-curvature="0"
       d="m 134.71,97.6 26.62,15.37 5.81,10.06 v 14.52"
       id="path1696"
       style="stroke:#000020;stroke-width:0.141" />
    <path
       inkscape:connector-curvature="0"
       d="m 136.75,96.42 0.31,-0.17"
       id="path1698"
       style="stroke:#000020;stroke-width:0.141" />
    <path
       inkscape:connector-curvature="0"
       d="M 137.21,96.16 137,96.28"
       id="path1700"
       style="stroke:#000020;stroke-width:0.141" />
    <path
       inkscape:connector-curvature="0"
       d="m 138.19,170.47 15.94,-9.2 -0.66,0.38"
       id="path1702"
       style="stroke:#000020;stroke-width:0.141" />
    <path
       inkscape:connector-curvature="0"
       d="m 138.57,95.37 3.64,-2.1"
       id="path1704"
       style="stroke:#000020;stroke-width:0.141" />
    <path
       inkscape:connector-curvature="0"
       d="m 140,94.54 -0.39,0.23"
       id="path1706"
       style="stroke:#000020;stroke-width:0.141" />
    <path
       inkscape:connector-curvature="0"
       d="m 144.15,92.43 1.19,-0.86 0.26,-0.26 1.42,-0.81 -0.36,0.2"
       id="path1708"
       style="stroke:#000020;stroke-width:0.141" />
    <path
       inkscape:connector-curvature="0"
       d="m 144.42,92 1.18,-0.69"
       id="path1710"
       style="stroke:#000020;stroke-width:0.141" />
    <path
       inkscape:connector-curvature="0"
       d="m 146.09,91.03 -0.03,0.02"
       id="path1712"
       style="stroke:#000020;stroke-width:0.141" />
    <path
       inkscape:connector-curvature="0"
       d="m 147.02,90.5 9.1,-5.26"
       id="path1714"
       style="stroke:#000020;stroke-width:0.141" />
    <path
       inkscape:connector-curvature="0"
       d="m 154.07,161.31 4.87,-2.82 -0.25,0.15"
       id="path1716"
       style="stroke:#000020;stroke-width:0.141" />
    <path
       inkscape:connector-curvature="0"
       d="m 155.46,85.62 12.76,-7.37 -0.04,0.03"
       id="path1718"
       style="stroke:#000020;stroke-width:0.141" />
    <path
       inkscape:connector-curvature="0"
       d="m 158.94,158.49 1.16,-0.67 -0.23,0.14"
       id="path1720"
       style="stroke:#000020;stroke-width:0.141" />
    <path
       inkscape:connector-curvature="0"
       d="m 160.1,157.82 7.68,-4.43"
       id="path1722"
       style="stroke:#000020;stroke-width:0.141" />
    <path
       inkscape:connector-curvature="0"
       d="m 161.33,112.97 7.5,-4.33 -0.57,1.15 -0.27,0.91 -0.16,1 -0.05,1.08 0.05,1.14 0.16,1.18 0.27,1.22 0.37,1.23 0.46,1.24 0.56,1.22 0.63,1.2 -3.14,1.82"
       id="path1724"
       style="stroke:#000020;stroke-width:0.141" />
    <path
       inkscape:connector-curvature="0"
       d="m 231.99,63.79 -56.14,32.41 -12.1,-6.98 23.91,-13.81 -0.42,0.24"
       id="path1726"
       style="stroke:#000020;stroke-width:0.141" />
    <path
       inkscape:connector-curvature="0"
       d="m 167.06,153.8 1.14,-0.65 -1.14,0.65"
       id="path1728"
       style="stroke:#000020;stroke-width:0.141" />
    <path
       inkscape:connector-curvature="0"
       d="m 168.2,153.15 0.47,-0.27"
       id="path1730"
       style="stroke:#000020;stroke-width:0.141" />
    <path
       inkscape:connector-curvature="0"
       d="m 167.9,153.32 -0.09,0.05"
       id="path1732"
       style="stroke:#000020;stroke-width:0.141" />
    <path
       inkscape:connector-curvature="0"
       d="m 168.83,152.78 -0.61,0.35 0.61,-0.35 -0.1,0.06"
       id="path1734"
       style="stroke:#000020;stroke-width:0.141" />
    <path
       inkscape:connector-curvature="0"
       d="m 168.22,78.25 2.32,-1.34 -0.73,0.43"
       id="path1736"
       style="stroke:#000020;stroke-width:0.141" />
    <path
       inkscape:connector-curvature="0"
       d="m 247.47,76.64 -65.09,37.58 -0.71,-1.15 -0.79,-1.09 -0.83,-1.02 -0.89,-0.94 -0.92,-0.83 -0.95,-0.74 -0.95,-0.61 -0.97,-0.49 -0.94,-0.36 -0.92,-0.23 -1.29,-0.08 -0.44,0.15 -1.5,0.69 -1.19,0.86 -0.26,0.26"
       id="path1738"
       style="stroke:#000020;stroke-width:0.141" />
    <path
       inkscape:connector-curvature="0"
       d="m 170.28,121.21 v 30.45"
       id="path1740"
       style="stroke:#000020;stroke-width:0.141" />
    <path
       inkscape:connector-curvature="0"
       d="m 170.54,76.91 4.29,-2.47"
       id="path1742"
       style="stroke:#000020;stroke-width:0.141" />
    <path
       inkscape:connector-curvature="0"
       d="M 172.22,106.68 241.67,66.59"
       id="path1744"
       style="stroke:#000020;stroke-width:0.141" />
    <path
       inkscape:connector-curvature="0"
       d="m 174.02,74.9 2.2,-1.27"
       id="path1746"
       style="stroke:#000020;stroke-width:0.141" />
    <path
       inkscape:connector-curvature="0"
       d="m 175.18,74.23 15.09,-8.7 -0.89,0.51"
       id="path1748"
       style="stroke:#000020;stroke-width:0.141" />
    <path
       inkscape:connector-curvature="0"
       d="m 182.36,144.97 3.77,-2.17"
       id="path1750"
       style="stroke:#000020;stroke-width:0.141" />
    <path
       inkscape:connector-curvature="0"
       d="M 182.38,144.96 V 114.22"
       id="path1752"
       style="stroke:#000020;stroke-width:0.141" />
    <path
       inkscape:connector-curvature="0"
       d="m 187.66,75.41 31.61,-18.25 -0.69,0.4"
       id="path1754"
       style="stroke:#000020;stroke-width:0.141" />
    <path
       inkscape:connector-curvature="0"
       d="m 245.05,86.42 -56.13,32.41 V 132.8 L 247.47,99"
       id="path1756"
       style="stroke:#000020;stroke-width:0.141" />
    <path
       inkscape:connector-curvature="0"
       d="m 190.27,65.53 2.32,-1.34 -1.01,0.58"
       id="path1758"
       style="stroke:#000020;stroke-width:0.141" />
    <path
       inkscape:connector-curvature="0"
       d="m 193.02,63.94 -0.43,0.25 22.46,-12.97"
       id="path1760"
       style="stroke:#000020;stroke-width:0.141" />
    <path
       inkscape:connector-curvature="0"
       d="m 219.27,57.16 0.62,-0.35"
       id="path1762"
       style="stroke:#000020;stroke-width:0.141" />
    <path
       inkscape:connector-curvature="0"
       d="m 128,176.35 0.78,-0.44 -6.16,3.56 L 96,164.1 90.19,154.04 v -16.21 l 4.36,-2.51 v -11.18 l 34.36,-19.83 v -3.36 l 2.07,-1.19"
       id="path1766"
       style="stroke:#000020;stroke-width:0.176" />
    <path
       inkscape:connector-curvature="0"
       d="m 128.78,175.91 9.41,-5.44"
       id="path1768"
       style="stroke:#000020;stroke-width:0.176" />
    <path
       inkscape:connector-curvature="0"
       d="m 130.94,99.78 1.32,-0.76 -1.16,0.67"
       id="path1770"
       style="stroke:#000020;stroke-width:0.176" />
    <path
       inkscape:connector-curvature="0"
       d="m 132.5,98.88 -0.24,0.14 0.46,-0.27"
       id="path1772"
       style="stroke:#000020;stroke-width:0.176" />
    <path
       inkscape:connector-curvature="0"
       d="m 134.51,97.72 0.07,-0.04 -2.32,1.34"
       id="path1774"
       style="stroke:#000020;stroke-width:0.176" />
    <path
       inkscape:connector-curvature="0"
       d="m 134.58,97.68 0.28,-0.16"
       id="path1776"
       style="stroke:#000020;stroke-width:0.176" />
    <path
       inkscape:connector-curvature="0"
       d="m 133.42,98.35 0.18,-0.11"
       id="path1778"
       style="stroke:#000020;stroke-width:0.176" />
    <path
       inkscape:connector-curvature="0"
       d="m 134.71,97.6 0.7,-0.4"
       id="path1780"
       style="stroke:#000020;stroke-width:0.176" />
    <path
       inkscape:connector-curvature="0"
       d="m 134.96,97.46 3.1,-1.79 -0.85,0.49"
       id="path1782"
       style="stroke:#000020;stroke-width:0.176" />
    <path
       inkscape:connector-curvature="0"
       d="m 136.33,96.67 -0.25,0.14"
       id="path1784"
       style="stroke:#000020;stroke-width:0.176" />
    <path
       inkscape:connector-curvature="0"
       d="m 136.2,96.74 -0.46,0.27 0.53,-0.31"
       id="path1786"
       style="stroke:#000020;stroke-width:0.176" />
    <path
       inkscape:connector-curvature="0"
       d="m 135.74,97.01 1.01,-0.59"
       id="path1788"
       style="stroke:#000020;stroke-width:0.176" />
    <path
       inkscape:connector-curvature="0"
       d="m 138.05,170.55 20.64,-11.91"
       id="path1790"
       style="stroke:#000020;stroke-width:0.176" />
    <path
       inkscape:connector-curvature="0"
       d="M 136.97,96.3 137,96.28"
       id="path1792"
       style="stroke:#000020;stroke-width:0.176" />
    <path
       inkscape:connector-curvature="0"
       d="m 138.22,95.58 0.76,-0.44 -0.92,0.53 0.51,-0.3"
       id="path1794"
       style="stroke:#000020;stroke-width:0.176" />
    <path
       inkscape:connector-curvature="0"
       d="m 138.98,95.14 0.24,-0.14 -0.24,0.14"
       id="path1796"
       style="stroke:#000020;stroke-width:0.176" />
    <path
       inkscape:connector-curvature="0"
       d="m 139.61,94.77 -0.39,0.23 1.41,-0.82"
       id="path1798"
       style="stroke:#000020;stroke-width:0.176" />
    <path
       inkscape:connector-curvature="0"
       d="m 146.09,91.03 0.09,-0.05 -2.03,1.17 v 0.28 l -1.5,0.69 -0.44,0.15"
       id="path1800"
       style="stroke:#000020;stroke-width:0.176" />
    <path
       inkscape:connector-curvature="0"
       d="M 144.15,92.15 144.42,92"
       id="path1802"
       style="stroke:#000020;stroke-width:0.176" />
    <path
       inkscape:connector-curvature="0"
       d="m 146.66,90.7 -0.48,0.28 0.15,-0.09"
       id="path1804"
       style="stroke:#000020;stroke-width:0.176" />
    <path
       inkscape:connector-curvature="0"
       d="m 146.18,90.98 0.2,-0.11"
       id="path1806"
       style="stroke:#000020;stroke-width:0.176" />
    <path
       inkscape:connector-curvature="0"
       d="m 146.54,90.77 0.48,-0.27 -0.42,0.24"
       id="path1808"
       style="stroke:#000020;stroke-width:0.176" />
    <path
       inkscape:connector-curvature="0"
       d="M 146.44,90.83 168.18,78.28"
       id="path1810"
       style="stroke:#000020;stroke-width:0.176" />
    <path
       inkscape:connector-curvature="0"
       d="m 154.07,161.31 -0.93,0.53 0.33,-0.19"
       id="path1812"
       style="stroke:#000020;stroke-width:0.176" />
    <path
       inkscape:connector-curvature="0"
       d="m 158.15,158.95 1.72,-0.99"
       id="path1814"
       style="stroke:#000020;stroke-width:0.176" />
    <path
       inkscape:connector-curvature="0"
       d="m 158.94,158.49 9.26,-5.34 -1.14,0.65"
       id="path1816"
       style="stroke:#000020;stroke-width:0.176" />
    <path
       inkscape:connector-curvature="0"
       d="m 168.2,153.15 0.53,-0.31"
       id="path1818"
       style="stroke:#000020;stroke-width:0.176" />
    <path
       inkscape:connector-curvature="0"
       d="m 167.83,153.36 0.16,-0.09 -0.09,0.05"
       id="path1820"
       style="stroke:#000020;stroke-width:0.176" />
    <path
       inkscape:connector-curvature="0"
       d="m 167.78,153.39 0.03,-0.02"
       id="path1822"
       style="stroke:#000020;stroke-width:0.176" />
    <path
       inkscape:connector-curvature="0"
       d="m 167.11,78.9 9.83,-5.68"
       id="path1824"
       style="stroke:#000020;stroke-width:0.176" />
    <path
       inkscape:connector-curvature="0"
       d="m 168.22,153.13 0.61,-0.35 -0.61,0.35"
       id="path1826"
       style="stroke:#000020;stroke-width:0.176" />
    <path
       inkscape:connector-curvature="0"
       d="m 169.11,152.62 0.27,-0.16 -0.55,0.32 0.23,-0.13"
       id="path1828"
       style="stroke:#000020;stroke-width:0.176" />
    <path
       inkscape:connector-curvature="0"
       d="m 168.26,153.11 0.27,-0.15"
       id="path1830"
       style="stroke:#000020;stroke-width:0.176" />
    <path
       inkscape:connector-curvature="0"
       d="m 169.38,77.58 0.43,-0.24"
       id="path1832"
       style="stroke:#000020;stroke-width:0.176" />
    <path
       inkscape:connector-curvature="0"
       d="m 169.38,152.46 0.83,-0.47 -0.83,0.47"
       id="path1834"
       style="stroke:#000020;stroke-width:0.176" />
    <path
       inkscape:connector-curvature="0"
       d="m 170.21,151.99 0.07,-0.05 v -0.28 l 1.5,-0.69 0.43,-0.14 1.81,-1.05 -1.16,0.67"
       id="path1836"
       style="stroke:#000020;stroke-width:0.176" />
    <path
       inkscape:connector-curvature="0"
       d="m 174.02,149.78 1.16,-0.67 -0.96,0.56"
       id="path1838"
       style="stroke:#000020;stroke-width:0.176" />
    <path
       inkscape:connector-curvature="0"
       d="m 175.18,149.11 1.05,-0.6 -1.05,0.6"
       id="path1840"
       style="stroke:#000020;stroke-width:0.176" />
    <path
       inkscape:connector-curvature="0"
       d="m 176.23,148.51 1.27,-0.73 -1.17,0.67"
       id="path1842"
       style="stroke:#000020;stroke-width:0.176" />
    <path
       inkscape:connector-curvature="0"
       d="m 177.5,147.78 2.32,-1.34 -1.16,0.67"
       id="path1844"
       style="stroke:#000020;stroke-width:0.176" />
    <path
       inkscape:connector-curvature="0"
       d="m 176.34,73.56 15.24,-8.79"
       id="path1846"
       style="stroke:#000020;stroke-width:0.176" />
    <path
       inkscape:connector-curvature="0"
       d="m 179.82,146.44 0.43,-0.25 -0.43,0.25"
       id="path1848"
       style="stroke:#000020;stroke-width:0.176" />
    <path
       inkscape:connector-curvature="0"
       d="m 180.25,146.19 0.73,-0.42 -0.73,0.42"
       id="path1850"
       style="stroke:#000020;stroke-width:0.176" />
    <path
       inkscape:connector-curvature="0"
       d="m 181.67,145.37 -0.69,0.4 1.16,-0.67 -0.47,0.27"
       id="path1852"
       style="stroke:#000020;stroke-width:0.176" />
    <path
       inkscape:connector-curvature="0"
       d="m 182.14,145.1 4.14,-2.39 -0.15,0.09"
       id="path1854"
       style="stroke:#000020;stroke-width:0.176" />
    <path
       inkscape:connector-curvature="0"
       d="m 182.26,145.03 0.1,-0.06"
       id="path1856"
       style="stroke:#000020;stroke-width:0.176" />
    <path
       inkscape:connector-curvature="0"
       d="m 186.28,142.71 56.19,-32.44 -1.16,0.67"
       id="path1858"
       style="stroke:#000020;stroke-width:0.176" />
    <path
       inkscape:connector-curvature="0"
       d="m 189.22,66.13 0.16,-0.09"
       id="path1860"
       style="stroke:#000020;stroke-width:0.176" />
    <path
       inkscape:connector-curvature="0"
       d="m 215.05,51.22 7.26,4.19 -2.42,1.4 2.08,1.2 10.02,5.78 2.42,-1.4 7.26,4.2 5.8,10.05 v 8.39 l -2.42,1.39 v 13.97"
       id="path1862"
       style="stroke:#000020;stroke-width:0.176" />
    <path
       inkscape:connector-curvature="0"
       d="m 242.47,110.27 5,-2.89 V 99"
       id="path1864"
       style="stroke:#000020;stroke-width:0.176" />
    <path
       inkscape:connector-curvature="0"
       d="m 51.95,115.75 4.35,2.52 v -5.03"
       id="path1869"
       style="stroke:#000020;stroke-width:0.141" />
    <path
       inkscape:connector-curvature="0"
       d="m 71.55,127.91 15.24,8.8 v 18.72 L 55.33,137.27 v -18.72 l 16.22,9.36 -16.22,9.36"
       id="path1871"
       style="stroke:#000020;stroke-width:0.141" />
    <path
       inkscape:connector-curvature="0"
       d="m 56.3,102.06 29.52,17.05 v 16.2 l 4.36,2.52 v 16.2 l -2.85,1.64"
       id="path1873"
       style="stroke:#000020;stroke-width:0.141" />
    <path
       inkscape:connector-curvature="0"
       d="m 85.82,135.31 8.73,-5.03"
       id="path1875"
       style="stroke:#000020;stroke-width:0.141" />
    <path
       inkscape:connector-curvature="0"
       d="M 85.82,119.11 124.54,96.75 95.02,79.71 90.66,82.22"
       id="path1877"
       style="stroke:#000020;stroke-width:0.141" />
    <path
       inkscape:connector-curvature="0"
       d="m 90.18,137.83 4.37,-2.53"
       id="path1879"
       style="stroke:#000020;stroke-width:0.141" />
    <path
       inkscape:connector-curvature="0"
       d="m 96.47,75.52 26.62,15.37 5.8,10.05 v 3.37"
       id="path1881"
       style="stroke:#000020;stroke-width:0.141" />
    <path
       inkscape:connector-curvature="0"
       d="m 100.91,72.96 1.05,-0.61"
       id="path1883"
       style="stroke:#000020;stroke-width:0.141" />
    <path
       inkscape:connector-curvature="0"
       d="m 102.15,72.24 -0.86,0.5"
       id="path1885"
       style="stroke:#000020;stroke-width:0.141" />
    <path
       inkscape:connector-curvature="0"
       d="m 107.4,69.21 -0.3,0.28 -1.19,0.86"
       id="path1887"
       style="stroke:#000020;stroke-width:0.141" />
    <path
       inkscape:connector-curvature="0"
       d="m 108.09,68.81 0.11,-0.06 -0.92,0.53"
       id="path1889"
       style="stroke:#000020;stroke-width:0.141" />
    <path
       inkscape:connector-curvature="0"
       d="m 107.69,69.04 -0.03,0.02"
       id="path1891"
       style="stroke:#000020;stroke-width:0.141" />
    <path
       inkscape:connector-curvature="0"
       d="m 113.4,65.75 -5.2,3"
       id="path1893"
       style="stroke:#000020;stroke-width:0.141" />
    <path
       inkscape:connector-curvature="0"
       d="m 123.09,90.89 7.5,-4.33 -0.58,1.15 -0.26,0.91 -0.16,1 -0.06,1.08 0.06,1.14 0.16,1.18 0.26,1.22 0.37,1.23 0.47,1.24 0.55,1.22 0.64,1.21 -3.15,1.8"
       id="path1895"
       style="stroke:#000020;stroke-width:0.141" />
    <path
       inkscape:connector-curvature="0"
       d="m 124.54,96.75 v 10.08"
       id="path1897"
       style="stroke:#000020;stroke-width:0.141" />
    <path
       inkscape:connector-curvature="0"
       d="M 193.74,41.71 137.6,74.12 125.51,67.14 172.86,39.8 171.79,40.42"
       id="path1899"
       style="stroke:#000020;stroke-width:0.141" />
    <path
       inkscape:connector-curvature="0"
       d="m 130.59,86.56 0.26,-0.26 1.19,-0.86 1.5,-0.69 0.43,-0.15 69.45,-40.09"
       id="path1901"
       style="stroke:#000020;stroke-width:0.141" />
    <path
       inkscape:connector-curvature="0"
       d="m 133.97,84.6 1.29,0.08 0.93,0.23 0.94,0.36 0.96,0.49 0.96,0.61 0.94,0.74 0.92,0.83 0.89,0.94 0.84,1.02 0.78,1.09 0.72,1.15 65.09,-37.58"
       id="path1903"
       style="stroke:#000020;stroke-width:0.141" />
    <path
       inkscape:connector-curvature="0"
       d="M 143.22,48.52 152.79,43"
       id="path1905"
       style="stroke:#000020;stroke-width:0.141" />
    <path
       inkscape:connector-curvature="0"
       d="m 144.14,92.44 v -0.3"
       id="path1907"
       style="stroke:#000020;stroke-width:0.141" />
    <path
       inkscape:connector-curvature="0"
       d="m 172.86,39.8 8.78,-5.07"
       id="path1909"
       style="stroke:#000020;stroke-width:0.141" />
    <path
       inkscape:connector-curvature="0"
       d="m 87.33,155.67 -2.96,1.71 -26.62,-15.36 -5.8,-10.06 v -16.21 l 4.35,-2.51 V 102.06 L 90.66,82.22 v -3.35 l 3.31,-1.91 -1.16,0.67"
       id="path1913"
       style="stroke:#000020;stroke-width:0.176" />
    <path
       inkscape:connector-curvature="0"
       d="m 87.01,155.86 3.18,-1.84"
       id="path1915"
       style="stroke:#000020;stroke-width:0.176" />
    <path
       inkscape:connector-curvature="0"
       d="m 93.97,76.96 0.67,-0.39 -0.67,0.39"
       id="path1917"
       style="stroke:#000020;stroke-width:0.176" />
    <path
       inkscape:connector-curvature="0"
       d="m 94.64,76.57 1.65,-0.95 -0.14,0.09"
       id="path1919"
       style="stroke:#000020;stroke-width:0.176" />
    <path
       inkscape:connector-curvature="0"
       d="m 96.47,75.52 -0.18,0.1 0.36,-0.21 -0.18,0.11"
       id="path1921"
       style="stroke:#000020;stroke-width:0.176" />
    <path
       inkscape:connector-curvature="0"
       d="m 97.03,75.19 0.42,-0.24 -0.8,0.46 0.38,-0.22"
       id="path1923"
       style="stroke:#000020;stroke-width:0.176" />
    <path
       inkscape:connector-curvature="0"
       d="m 97.45,74.95 1.16,-0.67 -1.16,0.67"
       id="path1925"
       style="stroke:#000020;stroke-width:0.176" />
    <path
       inkscape:connector-curvature="0"
       d="m 98.61,74.28 1.16,-0.67 -1.11,0.64"
       id="path1927"
       style="stroke:#000020;stroke-width:0.176" />
    <path
       inkscape:connector-curvature="0"
       d="m 100.67,73.09 -0.9,0.52 1.16,-0.67 -0.26,0.15 0.24,-0.13"
       id="path1929"
       style="stroke:#000020;stroke-width:0.176" />
    <path
       inkscape:connector-curvature="0"
       d="m 101.29,72.74 -0.36,0.2 1.16,-0.67 -0.13,0.08"
       id="path1931"
       style="stroke:#000020;stroke-width:0.176" />
    <path
       inkscape:connector-curvature="0"
       d="m 102.09,72.27 0.59,-0.34 -0.53,0.31"
       id="path1933"
       style="stroke:#000020;stroke-width:0.176" />
    <path
       inkscape:connector-curvature="0"
       d="m 102.68,71.93 1.29,-0.74 0.44,-0.15 1.5,-0.69 v -0.28 l 0.79,-0.46 -0.79,0.46"
       id="path1935"
       style="stroke:#000020;stroke-width:0.176" />
    <path
       inkscape:connector-curvature="0"
       d="m 106.7,69.61 0.58,-0.33"
       id="path1937"
       style="stroke:#000020;stroke-width:0.176" />
    <path
       inkscape:connector-curvature="0"
       d="m 106.73,69.59 1.16,-0.67 -0.49,0.29"
       id="path1939"
       style="stroke:#000020;stroke-width:0.176" />
    <path
       inkscape:connector-curvature="0"
       d="m 107.69,69.04 0.2,-0.12 -0.79,0.46"
       id="path1941"
       style="stroke:#000020;stroke-width:0.176" />
    <path
       inkscape:connector-curvature="0"
       d="m 108.25,68.72 0.46,-0.27 -0.78,0.45 0.2,-0.11"
       id="path1943"
       style="stroke:#000020;stroke-width:0.176" />
    <path
       inkscape:connector-curvature="0"
       d="m 108.2,68.75 0.51,-0.3 -0.82,0.47 0.18,-0.1 -0.14,0.08"
       id="path1945"
       style="stroke:#000020;stroke-width:0.176" />
    <path
       inkscape:connector-curvature="0"
       d="m 113.4,65.75 0.3,-0.18 -5.81,3.35 0.1,-0.05"
       id="path1947"
       style="stroke:#000020;stroke-width:0.176" />
    <path
       inkscape:connector-curvature="0"
       d="M 113.7,65.57 152.92,42.93 152.79,43"
       id="path1949"
       style="stroke:#000020;stroke-width:0.176" />
    <path
       inkscape:connector-curvature="0"
       d="m 152.92,42.93 23.88,-13.79 7.26,4.19 -2.42,1.4 12.1,6.98 2.42,-1.4 7.26,4.2 5.81,10.07"
       id="path1951"
       style="stroke:#000020;stroke-width:0.176" />
    <path
       inkscape:connector-curvature="0"
       d="m 184.06,33.33 -0.4,0.23"
       id="path1953"
       style="stroke:#000020;stroke-width:0.176" />
  </g>
</svg>
