<?xml version="1.0" encoding="UTF-8" standalone="no"?>
<!-- Created with Inkscape (http://www.inkscape.org/) -->

<svg
   xmlns:dc="http://purl.org/dc/elements/1.1/"
   xmlns:cc="http://creativecommons.org/ns#"
   xmlns:rdf="http://www.w3.org/1999/02/22-rdf-syntax-ns#"
   xmlns:svg="http://www.w3.org/2000/svg"
   xmlns="http://www.w3.org/2000/svg"
   xmlns:sodipodi="http://sodipodi.sourceforge.net/DTD/sodipodi-0.dtd"
   xmlns:inkscape="http://www.inkscape.org/namespaces/inkscape"
   version="1.1"
   id="svg2"
   xml:space="preserve"
   width="454"
   height="160"
   viewBox="0 0 454 160"
   sodipodi:docname="Motor Ouput Graphic.svg"
   inkscape:version="0.92.5 (2060ec1f9f, 2020-04-08)"><metadata
     id="metadata8"><rdf:RDF><cc:Work
         rdf:about=""><dc:format>image/svg+xml</dc:format><dc:type
           rdf:resource="http://purl.org/dc/dcmitype/StillImage" /><dc:title></dc:title></cc:Work></rdf:RDF></metadata><defs
     id="defs6"><clipPath
       clipPathUnits="userSpaceOnUse"
       id="clipPath20"><path
         d="M -2,-2 H 454 V 160 H -2 Z"
         id="path18"
         inkscape:connector-curvature="0" /></clipPath></defs><sodipodi:namedview
     pagecolor="#ffffff"
     bordercolor="#666666"
     borderopacity="1"
     objecttolerance="10"
     gridtolerance="10"
     guidetolerance="10"
     inkscape:pageopacity="0"
     inkscape:pageshadow="2"
     inkscape:window-width="2400"
     inkscape:window-height="1271"
     id="namedview4"
     showgrid="false"
     fit-margin-top="0"
     fit-margin-left="0"
     fit-margin-right="0"
     fit-margin-bottom="0"
     inkscape:zoom="0.81802549"
     inkscape:cx="485.81185"
     inkscape:cy="-0.53298788"
     inkscape:window-x="4791"
     inkscape:window-y="-9"
     inkscape:window-maximized="1"
     inkscape:current-layer="g10" /><g
     id="g10"
     inkscape:groupmode="layer"
     inkscape:label="Untitled spreadsheet - Sheet1 (1)"
     transform="matrix(1.3333333,0,0,-1.3333333,-20.446386,796.95435)"><g
       id="g12"
       transform="matrix(1,0,0,-1,-210.41521,650.96578)"><g
         id="g14"
         transform="matrix(0.75,0,0,0.75,226.5,54)"><g
           id="g16"
           clip-path="url(#clipPath20)"><path
             d="M 0,69 H 453 V 90 H 0 Z"
             style="fill:#ffffff;fill-opacity:1;fill-rule:nonzero;stroke:none"
             id="path22"
             inkscape:connector-curvature="0" /><path
             d="M -1,-1 H 453 V 23 H -1 Z"
             style="fill:#ffffff;fill-opacity:1;fill-rule:nonzero;stroke:none"
             id="path24"
             inkscape:connector-curvature="0" /><path
             d="M -1,22 H 176 V 69 H -1 Z"
             style="fill:#ffffff;fill-opacity:1;fill-rule:nonzero;stroke:none"
             id="path26"
             inkscape:connector-curvature="0" /><path
             d="M 175,22 H 453 V 46 H 175 Z"
             style="fill:#ff6666;fill-opacity:1;fill-rule:nonzero;stroke:none"
             id="path28"
             inkscape:connector-curvature="0" /><path
             d="M 175,45 H 453 V 69 H 175 Z"
             style="fill:#666666;fill-opacity:1;fill-rule:nonzero;stroke:none"
             id="path30"
             inkscape:connector-curvature="0" /><path
             d="m -1,89 h 177 v 70 H -1 Z"
             style="fill:#ffffff;fill-opacity:1;fill-rule:nonzero;stroke:none"
             id="path32"
             inkscape:connector-curvature="0" /><path
             d="m 175,89 h 278 v 24 H 175 Z"
             style="fill:#ff6666;fill-opacity:1;fill-rule:nonzero;stroke:none"
             id="path34"
             inkscape:connector-curvature="0" /><path
             d="m 175,112 h 278 v 24 H 175 Z"
             style="fill:#666666;fill-opacity:1;fill-rule:nonzero;stroke:none"
             id="path36"
             inkscape:connector-curvature="0" /><path
             d="m 175,135 h 278 v 24 H 175 Z"
             style="fill:#ffffff;fill-opacity:1;fill-rule:nonzero;stroke:none"
             id="path38"
             inkscape:connector-curvature="0" /><g
             id="g40"><path
               d="m 176,0 v 0 22 h -1 V 0 Z m 0,23 v 0 22 h -1 V 23 Z m 0,23 v 0 22 h -1 V 46 Z m 0,44 v 0 22 h -1 V 90 Z m 0,23 v 0 22 h -1 v -22 z m 0,23 v 0 22 h -1 V 136 Z M 302,0 v 0 22 h -1 V 0 Z m 0,23 v 0 22 h -1 V 23 Z m 0,23 v 0 22 h -1 V 46 Z m 0,44 v 0 22 h -1 V 90 Z m 0,23 v 0 22 h -1 v -22 z m 0,23 v 0 22 h -1 V 136 Z M 175,45 v 0 h 277 v 1 H 175 Z m 0,67 v 0 h 277 v 1 H 175 Z m 0,23 v 0 h 277 v 1 H 175 Z"
               style="fill:#000000;fill-opacity:0.14901961;fill-rule:nonzero;stroke:none"
               id="path42"
               inkscape:connector-curvature="0" /></g><path
             d="M -0.5,-1 V 159 M -1,-0.5 h 454 m -454,23 h 454 m -454,46 h 454 m -454,21 h 454 m -454,69 H 453 M 452.5,-1 v 160"
             style="fill:none;stroke:#000000;stroke-width:1;stroke-linecap:butt;stroke-linejoin:miter;stroke-miterlimit:10;stroke-dasharray:none;stroke-opacity:1"
             id="path44"
             inkscape:connector-curvature="0" /><text
             transform="translate(3,15.466858)"
             style="font-variant:normal;font-weight:bold;font-size:15.59999943px;font-family:Roboto;-inkscape-font-specification:Roboto-Bold;writing-mode:lr-tb;fill:#000000;fill-opacity:1;fill-rule:nonzero;stroke:none"
             id="text48"><tspan
               x="0 13.649999 22.463999 27.721199 36.535198 42.213596 46.097996 55.738796 63.554398 72.321594"
               y="0"
               sodipodi:role="line"
               id="tspan46">Motor Type</tspan></text>
<text
             transform="translate(195,15.466858)"
             style="font-variant:normal;font-weight:bold;font-size:15.59999943px;font-family:Roboto;-inkscape-font-specification:Roboto-Bold;writing-mode:lr-tb;fill:#000000;fill-opacity:1;fill-rule:nonzero;stroke:none"
             id="text52"><tspan
               x="0 13.649999 22.463999 27.721199 36.535198 42.213596 46.097996 59.732395 63.866394 69.544792 77.968796"
               y="0"
               sodipodi:role="line"
               id="tspan50">Motor Wires</tspan></text>
<text
             transform="translate(311,15.466858)"
             style="font-variant:normal;font-weight:bold;font-size:15.59999943px;font-family:Roboto;-inkscape-font-specification:Roboto-Bold;writing-mode:lr-tb;fill:#000000;fill-opacity:1;fill-rule:nonzero;stroke:none"
             id="text56"><tspan
               x="0 9.5783997 19.640398 30.123598 40.076397 49.966797 53.851196 67.501198 77.984398 87.890396 91.774796 105.40919 109.54319 115.2216 123.64559"
               y="0"
               sodipodi:role="line"
               id="tspan54">SPARK MAX Wires</tspan></text>
<text
             transform="translate(3,50.466858)"
             style="font-variant:normal;font-weight:normal;font-size:15.59999943px;font-family:Roboto;-inkscape-font-specification:Roboto-Regular;writing-mode:lr-tb;fill:#000000;fill-opacity:1;fill-rule:nonzero;stroke:none"
             id="text60"><tspan
               x="0 9.7031994 14.975999 23.571598 31.605598 40.185596 48.437996"
               y="0"
               sodipodi:role="line"
               id="tspan58">Brushed</tspan></text>
<text
             transform="translate(206,38.466858)"
             style="font-variant:normal;font-weight:normal;font-size:15.59999943px;font-family:Roboto;-inkscape-font-specification:Roboto-Regular;writing-mode:lr-tb;fill:#000000;fill-opacity:1;fill-rule:nonzero;stroke:none"
             id="text64"><tspan
               x="0 9.5939999 17.846399 26.629198 30.482399 36.909599 40.762798 54.381596"
               y="0"
               sodipodi:role="line"
               id="tspan62">Red / M+</tspan></text>
<text
             transform="translate(351,38.466858)"
             style="font-variant:normal;font-weight:normal;font-size:15.59999943px;font-family:Roboto;-inkscape-font-specification:Roboto-Regular;writing-mode:lr-tb;fill:#000000;fill-opacity:1;fill-rule:nonzero;stroke:none"
             id="text68"><tspan
               x="0 9.5939999 17.846399 26.629198 30.482399 36.909599 40.762798"
               y="0"
               sodipodi:role="line"
               id="tspan66">Red / A</tspan></text>
<text
             transform="translate(203,61.466858)"
             style="font-variant:normal;font-weight:normal;font-size:15.59999943px;font-family:Roboto;-inkscape-font-specification:Roboto-Regular;writing-mode:lr-tb;fill:#ffffff;fill-opacity:1;fill-rule:nonzero;stroke:none"
             id="text72"><tspan
               x="0 9.7031994 13.478399 21.949198 30.107998 38.001598 41.854797 48.281998 52.135197 65.753998"
               y="0"
               sodipodi:role="line"
               id="tspan70">Black / M-</tspan></text>
<text
             transform="translate(346,61.466858)"
             style="font-variant:normal;font-weight:normal;font-size:15.59999943px;font-family:Roboto;-inkscape-font-specification:Roboto-Regular;writing-mode:lr-tb;fill:#ffffff;fill-opacity:1;fill-rule:nonzero;stroke:none"
             id="text76"><tspan
               x="0 9.7031994 13.478399 21.949198 30.107998 38.001598 41.854797 48.281998 52.135197"
               y="0"
               sodipodi:role="line"
               id="tspan74">Black / B</tspan></text>
<text
             transform="translate(3,119.46686)"
             style="font-variant:normal;font-weight:normal;font-size:15.59999943px;font-family:Roboto;-inkscape-font-specification:Roboto-Regular;writing-mode:lr-tb;fill:#000000;fill-opacity:1;fill-rule:nonzero;stroke:none"
             id="text80"><tspan
               x="0 9.7031994 14.975999 23.571598 31.605598 40.185596 43.960796 52.213196 60.247196"
               y="0"
               sodipodi:role="line"
               id="tspan78">Brushless</tspan></text>
<text
             transform="translate(3,137.74078)"
             style="font-variant:normal;font-weight:normal;font-size:15.59999943px;font-family:Roboto;-inkscape-font-specification:Roboto-Regular;writing-mode:lr-tb;fill:#000000;fill-opacity:1;fill-rule:nonzero;stroke:none"
             id="text84"><tspan
               x="0 5.3195996 16.4268 25.287598 36.004799 39.857998 49.561195 54.833996 63.429596 71.463593 80.043594 83.818794 92.071198 100.10519 108.13919 111.99239 125.61119 134.50319 139.58879 148.48079 153.75359"
               y="0"
               sodipodi:role="line"
               id="tspan82">(NEO Brushless Motor)</tspan></text>
<text
             transform="translate(213,105.46686)"
             style="font-variant:normal;font-weight:normal;font-size:15.59999943px;font-family:Roboto;-inkscape-font-specification:Roboto-Regular;writing-mode:lr-tb;fill:#000000;fill-opacity:1;fill-rule:nonzero;stroke:none"
             id="text88"><tspan
               x="0 9.5939999 17.846399 26.629198 30.482399 36.909599 40.762798"
               y="0"
               sodipodi:role="line"
               id="tspan86">Red / A</tspan></text>
<text
             transform="translate(351,105.46686)"
             style="font-variant:normal;font-weight:normal;font-size:15.59999943px;font-family:Roboto;-inkscape-font-specification:Roboto-Regular;writing-mode:lr-tb;fill:#000000;fill-opacity:1;fill-rule:nonzero;stroke:none"
             id="text92"><tspan
               x="0 9.5939999 17.846399 26.629198 30.482399 36.909599 40.762798"
               y="0"
               sodipodi:role="line"
               id="tspan90">Red / A</tspan></text>
<text
             transform="translate(207,128.46686)"
             style="font-variant:normal;font-weight:normal;font-size:15.59999943px;font-family:Roboto;-inkscape-font-specification:Roboto-Regular;writing-mode:lr-tb;fill:#ffffff;fill-opacity:1;fill-rule:nonzero;stroke:none"
             id="text96"><tspan
               x="0 9.7031994 13.478399 21.949198 30.107998 38.001598 41.854797 48.281998 52.135197"
               y="0"
               sodipodi:role="line"
               id="tspan94">Black / B</tspan></text>
<text
             transform="translate(346,128.46686)"
             style="font-variant:normal;font-weight:normal;font-size:15.59999943px;font-family:Roboto;-inkscape-font-specification:Roboto-Regular;writing-mode:lr-tb;fill:#ffffff;fill-opacity:1;fill-rule:nonzero;stroke:none"
             id="text100"><tspan
               x="0 9.7031994 13.478399 21.949198 30.107998 38.001598 41.854797 48.281998 52.135197"
               y="0"
               sodipodi:role="line"
               id="tspan98">Black / B</tspan></text>
<text
             transform="translate(206,151.46686)"
             style="font-variant:normal;font-weight:normal;font-size:15.59999943px;font-family:Roboto;-inkscape-font-specification:Roboto-Regular;writing-mode:lr-tb;fill:#000000;fill-opacity:1;fill-rule:nonzero;stroke:none"
             id="text104"><tspan
               x="0 13.837199 22.417198 26.192398 31.277998 39.530399 43.383598 49.810799 53.663998"
               y="0"
               sodipodi:role="line"
               id="tspan102">White / C</tspan></text>
<text
             transform="translate(345,151.46686)"
             style="font-variant:normal;font-weight:normal;font-size:15.59999943px;font-family:Roboto;-inkscape-font-specification:Roboto-Regular;writing-mode:lr-tb;fill:#000000;fill-opacity:1;fill-rule:nonzero;stroke:none"
             id="text108"><tspan
               x="0 13.837199 22.417198 26.192398 31.277998 39.530399 43.383598 49.810799 53.663998"
               y="0"
               sodipodi:role="line"
               id="tspan106">White / C</tspan></text>
</g></g></g></g></svg>