<?xml version="1.0" encoding="UTF-8" standalone="no"?>
<!-- Created with Inkscape (http://www.inkscape.org/) -->

<svg
   xmlns:dc="http://purl.org/dc/elements/1.1/"
   xmlns:cc="http://creativecommons.org/ns#"
   xmlns:rdf="http://www.w3.org/1999/02/22-rdf-syntax-ns#"
   xmlns:svg="http://www.w3.org/2000/svg"
   xmlns="http://www.w3.org/2000/svg"
   xmlns:sodipodi="http://sodipodi.sourceforge.net/DTD/sodipodi-0.dtd"
   xmlns:inkscape="http://www.inkscape.org/namespaces/inkscape"
   version="1.1"
   id="svg2"
   xml:space="preserve"
   width="917"
   height="139"
   viewBox="0 0 917 139"
   sodipodi:docname="PWM Pulse Mapping.svg"
   inkscape:version="0.92.5 (2060ec1f9f, 2020-04-08)"><metadata
     id="metadata8"><rdf:RDF><cc:Work
         rdf:about=""><dc:format>image/svg+xml</dc:format><dc:type
           rdf:resource="http://purl.org/dc/dcmitype/StillImage" /><dc:title></dc:title></cc:Work></rdf:RDF></metadata><defs
     id="defs6"><clipPath
       clipPathUnits="userSpaceOnUse"
       id="clipPath20"><path
         d="M -2,-2 H 917 V 139 H -2 Z"
         id="path18"
         inkscape:connector-curvature="0" /></clipPath></defs><sodipodi:namedview
     pagecolor="#ffffff"
     bordercolor="#666666"
     borderopacity="1"
     objecttolerance="10"
     gridtolerance="10"
     guidetolerance="10"
     inkscape:pageopacity="0"
     inkscape:pageshadow="2"
     inkscape:window-width="1920"
     inkscape:window-height="1001"
     id="namedview4"
     showgrid="false"
     fit-margin-top="0"
     fit-margin-left="0"
     fit-margin-right="0"
     fit-margin-bottom="0"
     inkscape:zoom="1.1568627"
     inkscape:cx="486.6041"
     inkscape:cy="-149.79721"
     inkscape:window-x="-9"
     inkscape:window-y="-9"
     inkscape:window-maximized="1"
     inkscape:current-layer="g10" /><g
     id="g10"
     inkscape:groupmode="layer"
     inkscape:label="Untitled spreadsheet - Sheet1 (4)"
     transform="matrix(1.3333333,0,0,-1.3333333,-69.499998,744.99998)"><g
       id="g12"
       transform="matrix(1,0,0,-1,0,612)"><g
         id="g14"
         transform="matrix(0.75,0,0,0.75,52.875,54)"><g
           id="g16"
           clip-path="url(#clipPath20)"><path
             d="M -1,-1 H 916 V 138 H -1 Z"
             style="fill:#ffffff;fill-opacity:1;fill-rule:nonzero;stroke:none"
             id="path22"
             inkscape:connector-curvature="0" /><g
             id="g24"><path
               d="m 218,0 v 0 22 h -1 V 0 Z m 0,23 v 0 22 h -1 V 23 Z m 0,23 v 0 22 h -1 V 46 Z m 0,23 v 0 22 h -1 V 69 Z m 0,23 v 0 22 h -1 V 92 Z m 0,23 v 0 22 h -1 V 115 Z M 344,23 v 0 22 h -1 V 23 Z m 0,23 v 0 22 h -1 V 46 Z m 0,23 v 0 22 h -1 V 69 Z M 504,23 v 0 22 h -1 V 23 Z m 0,23 v 0 22 h -1 V 46 Z m 0,23 v 0 22 h -1 V 69 Z M 630,23 v 0 22 h -1 V 23 Z m 0,23 v 0 22 h -1 V 46 Z m 0,23 v 0 22 h -1 V 69 Z M 790,23 v 0 22 h -1 V 23 Z m 0,23 v 0 22 h -1 V 46 Z m 0,23 v 0 22 h -1 V 69 Z M 217,22 v 0 h 698 v 1 H 217 Z M 0,45 v 0 h 915 v 1 H 0 Z m 0,23 v 0 h 915 v 1 H 0 Z m 0,23 v 0 h 915 v 1 H 0 Z m 0,23 v 0 h 915 v 1 H 0 Z"
               style="fill:#000000;fill-opacity:0.14901961;fill-rule:nonzero;stroke:none"
               id="path26"
               inkscape:connector-curvature="0" /></g><path
             d="M -0.5,-1 V 138 M -1,-0.5 H 916 M -1,137.5 H 916 M 915.5,-1 v 139"
             style="fill:none;stroke:#000000;stroke-width:1;stroke-linecap:butt;stroke-linejoin:miter;stroke-miterlimit:10;stroke-dasharray:none;stroke-opacity:1"
             id="path28"
             inkscape:connector-curvature="0" /><text
             transform="translate(388,16.192932)"
             style="font-variant:normal;font-weight:bold;font-size:15.59999943px;font-family:Roboto;-inkscape-font-specification:Roboto-Bold;writing-mode:lr-tb;fill:#000000;fill-opacity:1;fill-rule:nonzero;stroke:none"
             id="text32"><tspan
               x="0 10.763999 19.484398 24.741598 33.508797 42.229198 47.486397 51.370796 60.153595 68.873993 74.131195 81.946793 85.831192 93.958794 101.77439 109.90199 114.036 122.45999 126.34439 134.70599 143.44199 152.22479 156.10919 164.89198 169.02599 174.70439 183.12839 191.25598 196.51318 200.64719 209.46118 218.19719 222.08159 227.55719 236.33998 244.76398 250.34879 258.71039 267.43079 271.56479 276.82199 280.70639 289.48917 297.91318 306.27478 315.05759 323.82477 332.18637 340.92236 349.70517"
               y="0"
               sodipodi:role="line"
               id="tspan30">Output duty cycle and direction (default deadband)</tspan></text>
<text
             transform="translate(237,39.192932)"
             style="font-variant:normal;font-weight:bold;font-size:15.59999943px;font-family:Roboto;-inkscape-font-specification:Roboto-Bold;writing-mode:lr-tb;fill:#000000;fill-opacity:1;fill-rule:nonzero;stroke:none"
             id="text36"><tspan
               x="0 8.5331993 17.253599 21.387598 25.521599 29.405998 39.358799 47.782799 55.660797 64.084793 69.763199 77.781593"
               y="0"
               sodipodi:role="line"
               id="tspan34">Full Reverse</tspan></text>
<text
             transform="translate(349,39.192932)"
             style="font-variant:normal;font-weight:bold;font-size:15.59999943px;font-family:Roboto;-inkscape-font-specification:Roboto-Bold;writing-mode:lr-tb;fill:#000000;fill-opacity:1;fill-rule:nonzero;stroke:none"
             id="text40"><tspan
               x="0 10.061999 15.740399 24.554398 33.321598 42.135597 47.813995 53.071198 57.205196 66.019196 74.755196 83.116798 87.250793 91.135193 101.08799 109.51199 117.38999 125.814 131.49239 139.51079"
               y="0"
               sodipodi:role="line"
               id="tspan38">Proportional Reverse</tspan></text>
<text
             transform="translate(540,39.192932)"
             style="font-variant:normal;font-weight:bold;font-size:15.59999943px;font-family:Roboto;-inkscape-font-specification:Roboto-Bold;writing-mode:lr-tb;fill:#000000;fill-opacity:1;fill-rule:nonzero;stroke:none"
             id="text44"><tspan
               x="0 11.013599 19.437599 28.157999 33.415199 39.093597 47.455196"
               y="0"
               sodipodi:role="line"
               id="tspan42">Neutral</tspan></text>
<text
             transform="translate(635,39.192932)"
             style="font-variant:normal;font-weight:bold;font-size:15.59999943px;font-family:Roboto;-inkscape-font-specification:Roboto-Bold;writing-mode:lr-tb;fill:#000000;fill-opacity:1;fill-rule:nonzero;stroke:none"
             id="text48"><tspan
               x="0 10.061999 15.740399 24.554398 33.321598 42.135597 47.813995 53.071198 57.205196 66.019196 74.755196 83.116798 87.250793 91.135193 99.668396 108.48239 114.16079 125.61119 133.97279 139.65118"
               y="0"
               sodipodi:role="line"
               id="tspan46">Proportional Forward</tspan></text>
<text
             transform="translate(809,39.192932)"
             style="font-variant:normal;font-weight:bold;font-size:15.59999943px;font-family:Roboto;-inkscape-font-specification:Roboto-Bold;writing-mode:lr-tb;fill:#000000;fill-opacity:1;fill-rule:nonzero;stroke:none"
             id="text52"><tspan
               x="0 8.5331993 17.253599 21.387598 25.521599 29.405998 37.939198 46.753197 52.431595 63.881996 72.243599 77.921997"
               y="0"
               sodipodi:role="line"
               id="tspan50">Full Forward</tspan></text>
<text
             transform="translate(3,62.192932)"
             style="font-variant:normal;font-weight:bold;font-size:15.59999943px;font-family:Roboto;-inkscape-font-specification:Roboto-Bold;writing-mode:lr-tb;fill:#000000;fill-opacity:1;fill-rule:nonzero;stroke:none"
             id="text56"><tspan
               x="0 10.763999 19.484398 24.741598 33.508797 42.229198 47.486397 51.370796 60.153595 68.873993 74.131195 81.946793 85.831192 93.958794 101.77439 109.90199 114.036 122.45999 126.2664 130.15079 140.27519 144.15959 149.63519 161.14799"
               y="0"
               sodipodi:role="line"
               id="tspan54">Output duty cycle, D (%)</tspan></text>
<text
             transform="translate(254,62.192932)"
             style="font-variant:normal;font-weight:normal;font-size:15.59999943px;font-family:Roboto;-inkscape-font-specification:Roboto-Regular;writing-mode:lr-tb;fill:#000000;fill-opacity:1;fill-rule:nonzero;stroke:none"
             id="text60"><tspan
               x="0 10.217999 14.071199 22.619999 26.473198 35.224796 43.976398"
               y="0"
               sodipodi:role="line"
               id="tspan58">D = 100</tspan></text>
<text
             transform="translate(385,62.192932)"
             style="font-variant:normal;font-weight:normal;font-size:15.59999943px;font-family:Roboto;-inkscape-font-specification:Roboto-Regular;writing-mode:lr-tb;fill:#000000;fill-opacity:1;fill-rule:nonzero;stroke:none"
             id="text64"><tspan
               x="0 8.7515993 17.503199 26.254799 30.107998 38.032799 41.885998 52.103996 55.957195 63.881996 67.735199"
               y="0"
               sodipodi:role="line"
               id="tspan62">100 &lt; D &lt; 0</tspan></text>
<text
             transform="translate(548,62.192932)"
             style="font-variant:normal;font-weight:normal;font-size:15.59999943px;font-family:Roboto;-inkscape-font-specification:Roboto-Regular;writing-mode:lr-tb;fill:#000000;fill-opacity:1;fill-rule:nonzero;stroke:none"
             id="text68"><tspan
               x="0 10.217999 14.071199 22.619999 26.473198"
               y="0"
               sodipodi:role="line"
               id="tspan66">D = 0</tspan></text>
<text
             transform="translate(671,62.192932)"
             style="font-variant:normal;font-weight:normal;font-size:15.59999943px;font-family:Roboto;-inkscape-font-specification:Roboto-Regular;writing-mode:lr-tb;fill:#000000;fill-opacity:1;fill-rule:nonzero;stroke:none"
             id="text72"><tspan
               x="0 8.7515993 12.604799 20.529598 24.382799 34.6008 38.453999 46.378796 50.231998 58.983597 67.735199"
               y="0"
               sodipodi:role="line"
               id="tspan70">0 &lt; D &lt; 100</tspan></text>
<text
             transform="translate(826,62.192932)"
             style="font-variant:normal;font-weight:normal;font-size:15.59999943px;font-family:Roboto;-inkscape-font-specification:Roboto-Regular;writing-mode:lr-tb;fill:#000000;fill-opacity:1;fill-rule:nonzero;stroke:none"
             id="text76"><tspan
               x="0 10.217999 14.071199 22.619999 26.473198 35.224796 43.976398"
               y="0"
               sodipodi:role="line"
               id="tspan74">D = 100</tspan></text>
<text
             transform="translate(3,85.19293)"
             style="font-variant:normal;font-weight:bold;font-size:15.59999943px;font-family:Roboto;-inkscape-font-specification:Roboto-Bold;writing-mode:lr-tb;fill:#000000;fill-opacity:1;fill-rule:nonzero;stroke:none"
             id="text80"><tspan
               x="0 4.5395999 13.275599 22.042799 30.763199 36.020397 39.904797 48.671997 57.392395 61.526398 69.544792 77.968796 81.853195 93.303596 97.437592 106.22039 111.47759 120.19799 124.00439 127.88879 136.65599 140.54039 146.01599 155.60999 163.62839"
               y="0"
               sodipodi:role="line"
               id="tspan78">Input pulse width, p (µs)</tspan></text>
<text
             transform="translate(250,85.19293)"
             style="font-variant:normal;font-weight:normal;font-size:15.59999943px;font-family:Roboto;-inkscape-font-specification:Roboto-Regular;writing-mode:lr-tb;fill:#000000;fill-opacity:1;fill-rule:nonzero;stroke:none"
             id="text84"><tspan
               x="0 8.7515993 12.604799 20.529598 24.382799 33.134399 41.885998 50.637596"
               y="0"
               sodipodi:role="line"
               id="tspan82">p ≤ 1000</tspan></text>
<text
             transform="translate(368,85.19293)"
             style="font-variant:normal;font-weight:normal;font-size:15.59999943px;font-family:Roboto;-inkscape-font-specification:Roboto-Regular;writing-mode:lr-tb;fill:#000000;fill-opacity:1;fill-rule:nonzero;stroke:none"
             id="text88"><tspan
               x="0 8.7515993 17.503199 26.254799 35.006397 38.859596 46.784397 50.637596 59.389194 63.242397 71.167198 75.020393 83.771996 92.523598 101.27519"
               y="0"
               sodipodi:role="line"
               id="tspan86">1000 &lt; p &lt; 1475</tspan></text>
<text
             transform="translate(511,85.19293)"
             style="font-variant:normal;font-weight:normal;font-size:15.59999943px;font-family:Roboto;-inkscape-font-specification:Roboto-Regular;writing-mode:lr-tb;fill:#000000;fill-opacity:1;fill-rule:nonzero;stroke:none"
             id="text92"><tspan
               x="0 8.7515993 17.503199 26.254799 35.006397 38.859596 46.784397 50.637596 59.389194 63.242397 71.167198 75.020393 83.771996 92.523598 101.27519"
               y="0"
               sodipodi:role="line"
               id="tspan90">1475 ≤ p ≤ 1525</tspan></text>
<text
             transform="translate(654,85.19293)"
             style="font-variant:normal;font-weight:normal;font-size:15.59999943px;font-family:Roboto;-inkscape-font-specification:Roboto-Regular;writing-mode:lr-tb;fill:#000000;fill-opacity:1;fill-rule:nonzero;stroke:none"
             id="text96"><tspan
               x="0 8.7515993 17.503199 26.254799 35.006397 38.859596 46.784397 50.637596 59.389194 63.242397 71.167198 75.020393 83.771996 92.523598 101.27519"
               y="0"
               sodipodi:role="line"
               id="tspan94">1525 &lt; p &lt; 2000</tspan></text>
<text
             transform="translate(822,85.19293)"
             style="font-variant:normal;font-weight:normal;font-size:15.59999943px;font-family:Roboto;-inkscape-font-specification:Roboto-Regular;writing-mode:lr-tb;fill:#000000;fill-opacity:1;fill-rule:nonzero;stroke:none"
             id="text100"><tspan
               x="0 8.7515993 17.503199 26.254799 35.006397 38.859596 46.784397 50.637596"
               y="0"
               sodipodi:role="line"
               id="tspan98">2000 ≤ p</tspan></text>
<text
             transform="translate(3,108.19293)"
             style="font-variant:normal;font-weight:bold;font-size:15.59999943px;font-family:Roboto;-inkscape-font-specification:Roboto-Bold;writing-mode:lr-tb;fill:#000000;fill-opacity:1;fill-rule:nonzero;stroke:none"
             id="text104"><tspan
               x="0 13.649999 22.011599 29.936398 34.070396 47.564396 56.284798 69.778793 73.663193 82.430397 91.150795 95.284798 103.30319 111.7272 115.6116 121.28999 129.6516 138.38759 147.27959 155.70358 159.50999 163.39439 172.16159 176.04599 181.52159 191.11559 199.13399"
               y="0"
               sodipodi:role="line"
               id="tspan102">Maximum pulse range, p (µs)</tspan></text>
<text
             transform="translate(515,108.19293)"
             style="font-variant:normal;font-weight:normal;font-size:15.59999943px;font-family:Roboto;-inkscape-font-specification:Roboto-Regular;writing-mode:lr-tb;fill:#000000;fill-opacity:1;fill-rule:nonzero;stroke:none"
             id="text108"><tspan
               x="0 8.7515993 17.503199 26.254799 30.107998 38.032799 41.885998 50.637596 54.490795 62.415596 66.268799 75.020393 83.771996 92.523598"
               y="0"
               sodipodi:role="line"
               id="tspan106">500 ≤ p ≤ 2500</tspan></text>
<text
             transform="translate(3,131.19293)"
             style="font-variant:normal;font-weight:bold;font-size:15.59999943px;font-family:Roboto;-inkscape-font-specification:Roboto-Bold;writing-mode:lr-tb;fill:#000000;fill-opacity:1;fill-rule:nonzero;stroke:none"
             id="text112"><tspan
               x="0 10.186799 18.548399 22.682398 26.816399 35.599197 39.483597 48.250797 56.971195 61.105198 69.123596 77.547592 81.431992 87.016792 92.69519 101.11919 109.91759 118.63799 127.06199 135.79799 143.9256 151.7412 155.54759 159.43199 165.01678 168.90118 174.37679 185.39038 193.31519"
               y="0"
               sodipodi:role="line"
               id="tspan110">Valid pulse frequency, f (Hz)</tspan></text>
<text
             transform="translate(526,131.19293)"
             style="font-variant:normal;font-weight:normal;font-size:15.59999943px;font-family:Roboto;-inkscape-font-specification:Roboto-Regular;writing-mode:lr-tb;fill:#000000;fill-opacity:1;fill-rule:nonzero;stroke:none"
             id="text116"><tspan
               x="0 8.7515993 17.503199 21.3564 29.281199 33.134399 38.547596 42.400799 50.325596 54.178795 62.930397 71.681999"
               y="0"
               sodipodi:role="line"
               id="tspan114">50 ≤ f ≤ 200</tspan></text>
</g></g></g></g></svg>